<svg width="72" height="72" viewBox="0 0 72 72" fill="none" xmlns="http://www.w3.org/2000/svg">
<ellipse cx="35.7577" cy="35.7577" rx="32.8146" ry="32.8147" fill="black"/>
<ellipse cx="35.7114" cy="35.7112" rx="9.1567" ry="9.15672" fill="white"/>
<path d="M44.3681 35.7112C44.3681 40.4922 40.4923 44.3679 35.7114 44.3679C30.9304 44.3679 27.0547 40.4922 27.0547 35.7112C27.0547 30.9302 30.9304 27.0545 35.7114 27.0545C40.4923 27.0545 44.3681 30.9302 44.3681 35.7112Z" stroke="black" stroke-opacity="0.25"/>
<path d="M11.2686 62.2487C5.16048 56.5184 1.26203 48.8516 0.207538 40.5876C0.0610164 39.4393 0.981979 38.4582 2.13957 38.4582H22.7323C23.2465 41.2466 24.6389 43.8136 26.7262 45.7717C29.1883 48.0816 32.4343 49.3726 35.8104 49.3847C39.1864 49.3969 42.4416 48.1292 44.9203 45.8371C46.9804 43.9321 48.3769 41.4371 48.9343 38.7159H69.5433C70.7066 38.7159 71.6295 39.7063 71.4734 40.8591C70.3567 49.1095 66.4044 56.742 60.259 62.4247C53.5847 68.5966 44.8196 72.0099 35.7292 71.9772C26.6387 71.9446 17.8984 68.4683 11.2686 62.2487Z" fill="white"/>
<path d="M1.69547 40.3977C2.70595 48.3168 6.44171 55.6636 12.2949 61.1547C18.6479 67.1148 27.0235 70.4459 35.7346 70.4773C44.4456 70.5086 52.8449 67.2377 59.2406 61.3234C65.1295 55.8779 68.9169 48.5639 69.987 40.6579C70.0129 40.4663 69.8608 40.2159 69.5433 40.2159H50.1057C49.3554 42.7739 47.9241 45.1025 45.9387 46.9384C43.1814 49.4881 39.5604 50.8982 35.805 50.8847C32.0496 50.8712 28.4388 49.4351 25.6999 46.8657C23.688 44.9782 22.2564 42.5823 21.5379 39.9582H2.13957C1.8238 39.9582 1.67105 40.2064 1.69547 40.3977Z" stroke="black" stroke-opacity="0.25" stroke-width="3"/>
<path d="M11.3502 9.72881C5.24203 15.4591 1.34358 23.1258 0.289081 31.3898C0.142559 32.5381 1.06352 33.5192 2.22112 33.5192H22.8138C23.328 30.7308 24.7205 28.1638 26.8078 26.2057C29.2699 23.8959 32.5159 22.6048 35.892 22.5927C39.268 22.5806 42.5232 23.8482 45.0019 26.1403C47.062 28.0453 48.4585 30.5403 49.0159 33.2615H69.6249C70.7882 33.2615 71.7111 32.2711 71.5551 31.1183C70.4384 22.868 66.486 15.2354 60.3406 9.55272C53.6663 3.3809 44.9012 -0.0324413 35.8108 0.000232423C26.7203 0.0329062 17.9799 3.50917 11.3502 9.72881Z" fill="#0000FF"/>
<path d="M1.77702 31.5797C2.7875 23.6606 6.52326 16.3139 12.3765 10.8228C18.7295 4.86271 27.1051 1.53153 35.8161 1.50022C44.5272 1.46891 52.9265 4.73979 59.3222 10.654C65.2111 16.0996 68.9986 23.4136 70.0686 31.3195C70.0946 31.5112 69.9425 31.7615 69.6249 31.7615H50.1873C49.437 29.2035 48.0057 26.875 46.0203 25.039C43.263 22.4893 39.642 21.0792 35.8866 21.0927C32.1311 21.1062 28.5203 22.5423 25.7815 25.1118C23.7696 26.9992 22.338 29.3952 21.6195 32.0192H2.22112C1.90534 32.0192 1.7526 31.7711 1.77702 31.5797Z" stroke="black" stroke-opacity="0.25" stroke-width="3"/>
<path d="M40.2048 35.7112C40.2048 38.1932 38.1928 40.2052 35.7108 40.2052C33.2288 40.2052 31.2168 38.1932 31.2168 35.7112C31.2168 33.2292 33.2288 31.2172 35.7108 31.2172C38.1928 31.2172 40.2048 33.2292 40.2048 35.7112Z" stroke="black" stroke-opacity="0.25" stroke-width="2"/>
<path d="M9.49901 17.1812C7.26887 15.31 7.07839 11.9121 9.16149 9.87846C11.4685 7.6263 13.4618 5.93204 14.7605 5.70103C17.4487 5.38478 21.6245 9.84914 23.9501 12.6405C24.9489 13.8394 24.7556 15.5921 23.5779 16.6158L18.2658 21.2336C17.1521 22.2017 15.4998 22.2161 14.3694 21.2676L9.49901 17.1812Z" fill="#B1296B"/>
<path d="M9.98108 16.6067C8.0774 15.0094 7.93211 12.1268 9.6854 10.4151C10.833 9.29483 11.8835 8.33225 12.7979 7.62509C13.7255 6.90776 14.4158 6.53209 14.8704 6.44345C15.3245 6.39692 15.9223 6.54378 16.6583 6.92524C17.3943 7.3067 18.1923 7.88299 19.0044 8.57596C20.6275 9.9608 22.2213 11.7372 23.3738 13.1206C24.0954 13.9867 23.9748 15.277 23.0859 16.0498L17.7738 20.6675C16.9385 21.3936 15.6993 21.4044 14.8514 20.6931L9.98108 16.6067Z" stroke="black" stroke-opacity="0.25" stroke-width="1.5"/>
<path d="M62.9678 17.6391C65.1979 15.7679 65.3884 12.3699 63.3053 10.3363C60.9983 8.08417 59.005 6.38991 57.7063 6.1589C55.0181 5.84265 50.8423 10.307 48.5167 13.0984C47.5179 14.2973 47.7112 16.05 48.8889 17.0737L54.201 21.6915C55.3146 22.6596 56.967 22.674 58.0974 21.7255L62.9678 17.6391Z" fill="#B1296B"/>
<path d="M62.4857 17.0646C64.3894 15.4673 64.5347 12.5846 62.7814 10.873C61.6338 9.75271 60.5833 8.79013 59.6689 8.08297C58.7413 7.36564 58.051 6.98996 57.5964 6.90132C57.1423 6.85479 56.5445 7.00165 55.8085 7.38311C55.0725 7.76458 54.2745 8.34087 53.4623 9.03384C51.8393 10.4187 50.2455 12.1951 49.093 13.5785C48.3714 14.4446 48.4919 15.7349 49.3809 16.5077L54.693 21.1254C55.5283 21.8515 56.7675 21.8623 57.6154 21.151L62.4857 17.0646Z" stroke="black" stroke-opacity="0.25" stroke-width="1.5"/>
</svg>
