<svg width="157" height="158" viewBox="0 0 157 158" fill="none" xmlns="http://www.w3.org/2000/svg">
<circle cx="78.5" cy="78.5" r="76.5" fill="black"/>
<circle cx="78" cy="78" r="20" fill="white"/>
<circle cx="78" cy="78" r="18" stroke="black" stroke-opacity="0.25" stroke-width="4"/>
<path d="M24.6129 135.963C10.6531 122.867 1.97747 105.14 0.173187 86.1328C0.0637913 84.9804 0.98198 84 2.13957 84H49.6518C50.7749 90.0904 53.8163 95.6972 58.3753 99.9742C63.7531 105.019 70.8431 107.839 78.2169 107.866C85.5908 107.892 92.7008 105.123 98.1148 100.117C102.614 95.9561 105.665 90.5065 106.882 84.5629H154.448C155.612 84.5629 156.532 85.5525 156.413 86.7098C154.469 105.697 145.667 123.355 131.618 136.347C117.04 149.828 97.8949 157.283 78.0396 157.212C58.1842 157.141 39.0936 149.548 24.6129 135.963Z" fill="white"/>
<path d="M3.27789 87C5.248 104.844 13.5213 121.444 26.6654 133.775C40.5927 146.841 58.9538 154.143 78.0504 154.212C97.1469 154.281 115.56 147.11 129.581 134.145C142.807 121.914 151.198 105.384 153.301 87.5629H109.233C107.625 93.1805 104.503 98.2962 100.152 102.32C94.1805 107.841 86.3388 110.895 78.2062 110.866C70.0735 110.836 62.254 107.726 56.3227 102.162C51.9139 98.026 48.7919 92.7622 47.2547 87H3.27789Z" stroke="black" stroke-opacity="0.25" stroke-width="6"/>
<path d="M24.7912 21.2496C10.8314 34.3458 2.15576 52.0728 0.351471 71.0797C0.242075 72.2321 1.16026 73.2125 2.31786 73.2125H49.8301C50.9532 67.122 53.9946 61.5152 58.5536 57.2383C63.9314 52.1931 71.0213 49.3733 78.3952 49.3468C85.7691 49.3203 92.8791 52.0891 98.2931 57.0955C102.793 61.2564 105.843 66.706 107.06 72.6496H154.627C155.79 72.6496 156.71 71.6599 156.592 70.5027C154.648 51.5151 145.846 33.857 131.796 20.865C117.218 7.38453 98.0732 -0.0708581 78.2179 0.000507656C58.3625 0.0718734 39.2718 7.66469 24.7912 21.2496Z" fill="#FF0000"/>
<path d="M3.45618 70.2125C5.42628 52.3682 13.6996 35.7686 26.8437 23.4375C40.771 10.3718 59.1321 3.06913 78.2286 3.00049C97.3252 2.93185 115.738 10.1023 129.759 23.0676C142.986 35.2984 151.377 51.8289 153.48 69.6496H109.411C107.803 64.032 104.681 58.9162 100.33 54.8929C94.3588 49.3713 86.5171 46.3176 78.3844 46.3468C70.2518 46.3761 62.4323 49.4861 56.501 55.0504C52.0922 59.1865 48.9702 64.4502 47.4329 70.2125H3.45618Z" stroke="black" stroke-opacity="0.25" stroke-width="6"/>
<circle cx="78" cy="78" r="11" stroke="black" stroke-opacity="0.25" stroke-width="2"/>
</svg>
