<svg width="163" height="163" viewBox="0 0 163 163" fill="none" xmlns="http://www.w3.org/2000/svg">
<mask id="path-1-inside-1_19_13" fill="white">
<path d="M163 81.5C163 126.511 126.511 163 81.5 163C36.4888 163 0 126.511 0 81.5C0 36.4888 36.4888 0 81.5 0C126.511 0 163 36.4888 163 81.5ZM18.0575 81.5C18.0575 116.538 46.4617 144.942 81.5 144.942C116.538 144.942 144.942 116.538 144.942 81.5C144.942 46.4617 116.538 18.0575 81.5 18.0575C46.4617 18.0575 18.0575 46.4617 18.0575 81.5Z"/>
</mask>
<path d="M163 81.5C163 126.511 126.511 163 81.5 163C36.4888 163 0 126.511 0 81.5C0 36.4888 36.4888 0 81.5 0C126.511 0 163 36.4888 163 81.5ZM18.0575 81.5C18.0575 116.538 46.4617 144.942 81.5 144.942C116.538 144.942 144.942 116.538 144.942 81.5C144.942 46.4617 116.538 18.0575 81.5 18.0575C46.4617 18.0575 18.0575 46.4617 18.0575 81.5Z" fill="#FFFBE0" stroke="black" stroke-width="6" mask="url(#path-1-inside-1_19_13)"/>
<circle cx="81.5" cy="81.5" r="67" fill="#5A9BC4" stroke="black" stroke-width="3"/>
<circle cx="103" cy="45" r="10" fill="#87CED4"/>
<path d="M64.0867 72.9413C64.5226 87.6 53.7893 99.4232 41.8054 96.5651C29.8216 93.707 30.5001 70.9415 36.5 56.5C46 33.6341 60.0296 36.4647 65.0066 40.1383C80.0428 54.6974 69.4701 58.1504 64.0867 72.9413Z" fill="#EDE1BB"/>
<path d="M89.579 95.0615C74.3248 104.804 58.7757 112.261 67 121.5C75.2243 130.739 107.309 128.616 119.5 113C138.803 88.274 122.971 66.115 117 64C95.4061 60.0064 102.401 79.7804 89.579 95.0615Z" fill="#56779A"/>
</svg>
