<svg width="70" height="70" viewBox="0 0 70 70" fill="none" xmlns="http://www.w3.org/2000/svg">
<ellipse cx="34.7931" cy="36.2848" rx="31.8097" ry="31.8098" fill="black"/>
<ellipse cx="34.716" cy="34.7161" rx="8.90155" ry="8.90157" fill="white"/>
<path d="M43.1175 34.7161C43.1175 39.3562 39.356 43.1177 34.716 43.1177C30.076 43.1177 26.3145 39.3562 26.3145 34.7161C26.3145 30.0761 30.076 26.3146 34.716 26.3146C39.356 26.3146 43.1175 30.0761 43.1175 34.7161Z" stroke="black" stroke-opacity="0.25"/>
<path d="M10.9546 60.5143C5.03126 54.9573 1.24548 47.5272 0.209351 39.5159C0.0608704 38.3679 0.981979 37.3867 2.13957 37.3867H22.0989C22.5988 40.0975 23.9524 42.5929 25.9815 44.4965C28.3751 46.742 31.5306 47.997 34.8126 48.0088C38.0945 48.0206 41.259 46.7883 43.6687 44.5601C45.6714 42.7081 47.029 40.2826 47.5708 37.6373H67.5456C68.7089 37.6373 69.6319 38.6277 69.4739 39.7802C68.3774 47.7779 64.5394 55.1748 58.58 60.6855C52.0917 66.6853 43.5708 70.0036 34.7336 69.9718C25.8965 69.9401 17.3997 66.5607 10.9546 60.5143Z" fill="white"/>
<path d="M1.69696 39.3235C2.6886 46.9908 6.31187 54.102 11.9809 59.4204C18.1492 65.2071 26.2813 68.4414 34.739 68.4718C43.1968 68.5022 51.3519 65.3265 57.5616 59.5842C63.2651 54.3101 66.9384 47.2308 67.9878 39.5765C68.0136 39.3877 67.864 39.1373 67.5456 39.1373H48.7408C48.007 41.6194 46.615 43.8786 44.6871 45.6614C41.9989 48.1472 38.4685 49.522 34.8072 49.5088C31.1458 49.4957 27.6255 48.0955 24.9552 45.5905C23.0016 43.7577 21.6092 41.4331 20.906 38.8867H2.13957C1.82295 38.8867 1.67258 39.135 1.69696 39.3235Z" stroke="black" stroke-opacity="0.25" stroke-width="3"/>
<path d="M11.034 9.45774C5.11061 15.0147 1.32482 22.4449 0.288696 30.4561C0.140216 31.6041 1.06132 32.5853 2.21892 32.5853H22.1782C22.6781 29.8746 24.0318 27.3791 26.0609 25.4755C28.4544 23.2301 31.61 21.975 34.8919 21.9632C38.1739 21.9514 41.3384 23.1837 43.748 25.412C45.7507 27.2639 47.1083 29.6894 47.6502 32.3348H67.6249C68.7882 32.3348 69.7112 31.3443 69.5532 30.1918C68.4567 22.1941 64.6187 14.7973 58.6594 9.28656C52.171 3.2867 43.6501 -0.0315374 34.813 0.000225947C25.9758 0.0319893 17.479 3.41139 11.034 9.45774Z" fill="#FF0000"/>
<path d="M1.77631 30.6485C2.76794 22.9813 6.39121 15.8701 12.0603 10.5517C18.2286 4.76493 26.3606 1.53062 34.8184 1.50022C43.2761 1.46982 51.4312 4.64559 57.641 10.3879C63.3444 15.662 67.0177 22.7413 68.0671 30.3955C68.093 30.5843 67.9433 30.8348 67.6249 30.8348H48.8202C48.0863 28.3527 46.6943 26.0935 44.7664 24.3107C42.0782 21.8249 38.5479 20.4501 34.8865 20.4632C31.2252 20.4764 27.7048 21.8765 25.0346 24.3816C23.0809 26.2144 21.6886 28.539 20.9853 31.0853H2.21892C1.9023 31.0853 1.75192 30.837 1.77631 30.6485Z" stroke="black" stroke-opacity="0.25" stroke-width="3"/>
<path d="M39.0569 34.7161C39.0569 37.1135 37.1134 39.057 34.7159 39.057C32.3185 39.057 30.375 37.1135 30.375 34.7161C30.375 32.3186 32.3185 30.3751 34.7159 30.3751C37.1134 30.3751 39.0569 32.3186 39.0569 34.7161Z" stroke="black" stroke-opacity="0.25" stroke-width="2"/>
</svg>
