<svg width="126" height="20" viewBox="0 0 126 20" fill="none" xmlns="http://www.w3.org/2000/svg">
<circle cx="10" cy="10" r="8.5" fill="#CE4644" stroke="black" stroke-width="3"/>
<circle cx="63" cy="10" r="8.5" fill="#EAC776" stroke="black" stroke-width="3"/>
<circle cx="116" cy="10" r="8.5" fill="#829D7C" stroke="black" stroke-width="3"/>
<path d="M9.13902 9.29941C8.61933 11.6837 6.41045 13.1605 4.59066 12.2166C2.77088 11.2728 3.79684 7.62451 5.3469 5.5344C7 3.30535 9.95236 3.24682 10.608 4.04029C12.4496 6.99618 10.6036 7.12808 9.13902 9.29941Z" fill="#EDE1BB"/>
<path d="M113.294 8C113.142 8.53536 112.876 10.7788 112.5 11.8445C112.1 12.9779 111.378 12.7804 111 12.5956C110.266 12.2369 110.535 8.75753 111 7.59556C112 5.09557 115.547 4.16453 115.794 4.50001C116.147 5.1765 116.449 5.24376 115.794 6C115.215 6.66694 113.624 7.51047 113.294 8Z" fill="#EDE1BB"/>
<path d="M63 9C62.4803 11.3842 58.5 11.2379 57.861 10.7379C57.2219 10.2379 57.8109 8.32804 59.361 6.23791C60.3121 4.95537 62.3443 4.66896 63 5.46243C63 5.46243 58.861 9.23792 63 9Z" fill="#EDE1BB"/>
</svg>
