<svg width="72" height="72" viewBox="0 0 72 72" fill="none" xmlns="http://www.w3.org/2000/svg">
<ellipse cx="35.9401" cy="35.94" rx="35.0243" ry="35.0244" fill="black"/>
<ellipse cx="35.7111" cy="35.7111" rx="9.15669" ry="9.1567" fill="white"/>
<path d="M44.3678 35.7111C44.3678 40.4921 40.4921 44.3678 35.7111 44.3678C30.9302 44.3678 27.0544 40.4921 27.0544 35.7111C27.0544 30.9302 30.9302 27.0544 35.7111 27.0544C40.4921 27.0544 44.3678 30.9302 44.3678 35.7111Z" stroke="black" stroke-opacity="0.25"/>
<path d="M11.2686 62.2486C5.16048 56.5183 1.26203 48.8516 0.207538 40.5876C0.0610165 39.4393 0.981979 38.4582 2.13957 38.4582H22.7323C23.2465 41.2466 24.639 43.8136 26.7262 45.7717C29.1884 48.0816 32.4344 49.3726 35.8104 49.3847C39.1864 49.3968 42.4416 48.1292 44.9203 45.8371C46.9804 43.9321 48.3769 41.4371 48.9343 38.7159H69.5433C70.7066 38.7159 71.6295 39.7063 71.4735 40.8591C70.3568 49.1094 66.4044 56.742 60.259 62.4247C53.5847 68.5965 44.8196 72.0099 35.7292 71.9772C26.6387 71.9445 17.8984 68.4683 11.2686 62.2486Z" fill="white"/>
<path d="M1.69547 40.3977C2.70595 48.3168 6.44171 55.6635 12.2949 61.1547C18.6479 67.1147 27.0235 70.4459 35.7346 70.4772C44.4456 70.5085 52.8449 67.2376 59.2406 61.3234C65.1295 55.8779 68.9169 48.5639 69.987 40.6579C70.013 40.4662 69.8609 40.2159 69.5433 40.2159H50.1057C49.3554 42.7739 47.9241 45.1024 45.9387 46.9384C43.1814 49.4881 39.5604 50.8982 35.805 50.8847C32.0496 50.8712 28.4388 49.4351 25.6999 46.8657C23.688 44.9782 22.2564 42.5823 21.5379 39.9582H2.13957C1.8238 39.9582 1.67105 40.2063 1.69547 40.3977Z" stroke="black" stroke-opacity="0.25" stroke-width="3"/>
<path d="M11.3502 9.72881C5.24202 15.4591 1.34358 23.1258 0.289081 31.3898C0.142559 32.5381 1.06352 33.5193 2.22112 33.5193H22.8138C23.328 30.7308 24.7205 28.1639 26.8077 26.2057C29.2699 23.8959 32.5159 22.6048 35.8919 22.5927C39.2679 22.5806 42.5231 23.8482 45.0018 26.1403C47.0619 28.0453 48.4584 30.5403 49.0158 33.2616H69.6249C70.7882 33.2616 71.711 32.2711 71.555 31.1183C70.4383 22.868 66.4859 15.2354 60.3406 9.55272C53.6663 3.3809 44.9012 -0.0324413 35.8107 0.000232423C26.7203 0.0329062 17.9799 3.50917 11.3502 9.72881Z" fill="#313131"/>
<path d="M1.77702 31.5797C2.78749 23.6606 6.52326 16.3139 12.3764 10.8228C18.7295 4.86271 27.1051 1.53153 35.8161 1.50022C44.5272 1.46891 52.9265 4.73979 59.3222 10.654C65.211 16.0996 68.9985 23.4136 70.0686 31.3195C70.0945 31.5112 69.9424 31.7616 69.6249 31.7616H50.1872C49.437 29.2035 48.0057 26.875 46.0202 25.039C43.263 22.4893 39.6419 21.0792 35.8865 21.0927C32.1311 21.1062 28.5203 22.5423 25.7815 25.1118C23.7696 26.9992 22.338 29.3952 21.6195 32.0193H2.22112C1.90534 32.0193 1.7526 31.7711 1.77702 31.5797Z" stroke="black" stroke-opacity="0.25" stroke-width="3"/>
<path d="M40.205 35.7111C40.205 38.1931 38.193 40.2052 35.711 40.2052C33.2291 40.2052 31.217 38.1931 31.217 35.7111C31.217 33.2291 33.2291 31.2171 35.711 31.2171C38.193 31.2171 40.205 33.2291 40.205 35.7111Z" stroke="black" stroke-opacity="0.25" stroke-width="2"/>
<path d="M20.6665 7.85886C20.8683 5.27028 18.9191 2.96799 16.5758 4.08628C12.6761 5.94734 9.22876 10.2312 7.97517 11.7517C5.55466 15.0949 5.84872 25.2293 6.15122 30.1308C6.24634 31.6721 7.53417 32.8432 9.07839 32.8432H15.9427C17.5091 32.8432 18.8119 31.6381 18.9336 30.0765L20.6665 7.85886Z" fill="#FFFF00"/>
<path d="M19.9187 7.80054C20.0049 6.6959 19.6258 5.69676 19.0437 5.11129C18.4952 4.55966 17.7605 4.35192 16.8988 4.76315C15.0597 5.64085 13.2929 7.10978 11.8113 8.5792C10.4285 9.95075 9.32922 11.2866 8.67836 12.0776C8.64059 12.1235 8.60433 12.1675 8.56962 12.2097C8.06494 12.9163 7.65993 14.0438 7.36109 15.4958C7.06332 16.9425 6.88552 18.6353 6.79099 20.3971C6.602 23.9194 6.74927 27.6456 6.8998 30.0846C6.96966 31.2166 7.9165 32.0932 9.07839 32.0932H15.9427C17.1175 32.0932 18.0946 31.1894 18.1859 30.0181L19.9187 7.80054Z" stroke="black" stroke-opacity="0.25" stroke-width="1.5"/>
<path d="M51.6343 7.85886C51.4324 5.27028 53.3817 2.96799 55.725 4.08628C59.6247 5.94734 63.072 10.2312 64.3256 11.7517C66.7461 15.0949 66.4521 25.2293 66.1496 30.1308C66.0544 31.6721 64.7666 32.8432 63.2224 32.8432H56.358C54.7917 32.8432 53.4889 31.6381 53.3671 30.0765L51.6343 7.85886Z" fill="#FFFF00"/>
<path d="M52.3821 7.80054C52.2959 6.6959 52.675 5.69676 53.2571 5.11129C53.8055 4.55966 54.5403 4.35192 55.402 4.76315C57.2411 5.64085 59.0079 7.10978 60.4894 8.5792C61.8723 9.95074 62.9715 11.2866 63.6224 12.0776C63.6602 12.1235 63.6964 12.1675 63.7312 12.2097C64.2358 12.9163 64.6408 14.0438 64.9397 15.4958C65.2375 16.9425 65.4153 18.6353 65.5098 20.3971C65.6988 23.9194 65.5515 27.6456 65.401 30.0846C65.3311 31.2166 64.3843 32.0932 63.2224 32.0932H56.358C55.1833 32.0932 54.2062 31.1894 54.1149 30.0181L52.3821 7.80054Z" stroke="black" stroke-opacity="0.25" stroke-width="1.5"/>
</svg>
