<svg width="25" height="25" viewBox="0 0 25 25" fill="none" xmlns="http://www.w3.org/2000/svg">
<path fill-rule="evenodd" clip-rule="evenodd" d="M12.77 16.851C10.5096 16.851 8.68908 15.0304 8.68908 12.77C8.68908 10.5096 10.5096 8.68903 12.77 8.68903C15.0304 8.68903 16.8511 10.5096 16.8511 12.77C16.8511 15.0305 15.0304 16.851 12.77 16.851ZM23.0336 9.89865H21.0298C20.9443 9.61764 20.8342 9.36102 20.712 9.09222L22.1661 7.65045C22.8137 6.99063 22.8137 5.93985 22.1661 5.28006L20.3578 3.48392C19.7102 2.8241 18.6472 2.8241 17.9873 3.48392L16.5821 4.88904C16.3257 4.76688 16.0569 4.65689 15.7881 4.55914V2.50644C15.7881 1.57782 15.0426 0.83252 14.114 0.83252H11.5726C10.644 0.83252 9.89868 1.57782 9.89868 2.50644V4.51029C9.61767 4.59583 9.3612 4.70579 9.09228 4.82798L7.65051 3.37397C6.99072 2.72639 5.92761 2.72639 5.28003 3.37397L3.48401 5.18232C2.8241 5.8299 2.8241 6.89292 3.48401 7.55271L4.88916 8.95783C4.76697 9.21442 4.65686 9.48322 4.5592 9.75205H2.50647C1.578 9.75205 0.83252 10.4974 0.83252 11.426V13.9674C0.83252 14.896 1.578 15.6536 2.50647 15.6536H4.51025C4.59594 15.9224 4.70581 16.1912 4.828 16.4478L3.37402 17.8896C2.72644 18.5494 2.72644 19.6124 3.37402 20.26L5.18237 22.0683C5.82995 22.7159 6.89294 22.7159 7.55273 22.0683L8.95788 20.651C9.21447 20.7731 9.48327 20.8831 9.75207 20.9809V23.0336C9.75207 23.9622 10.4974 24.7075 11.426 24.7075H13.9674C14.896 24.7075 15.6536 23.9622 15.6536 23.0336V21.0419C15.9225 20.9442 16.1791 20.8342 16.4477 20.712L17.8896 22.166C18.5493 22.8136 19.6123 22.8136 20.26 22.166L22.0682 20.3577C22.7159 19.7101 22.7159 18.6471 22.0682 17.9995L20.651 16.5822C20.7732 16.3256 20.8832 16.0568 20.981 15.788H23.0336C23.9623 15.788 24.7075 15.0426 24.7075 14.114V11.5726C24.7075 10.644 23.9623 9.89865 23.0336 9.89865Z" fill="#F4F6F8"/>
</svg>
