<svg width="86" height="86" viewBox="0 0 86 86" fill="none" xmlns="http://www.w3.org/2000/svg">
<path opacity="0.3" fill-rule="evenodd" clip-rule="evenodd" d="M7.68707 42.9786C7.68707 23.4876 23.4876 7.68707 42.9786 7.68707C62.4696 7.68707 78.2701 23.4876 78.2701 42.9786C78.2701 62.4696 62.4696 78.2702 42.9786 78.2702C23.4876 78.2702 7.68707 62.4696 7.68707 42.9786Z" fill="url(#paint0_radial_0_466)"/>
<g filter="url(#filter0_d_0_466)">
<path fill-rule="evenodd" clip-rule="evenodd" d="M66.0668 47.5748L66.0461 47.8161C65.3435 54.6722 60.5106 60.0083 54.4926 60.585L52.4903 60.7842C46.0949 61.3921 39.6682 61.3921 33.2732 60.7737L31.4487 60.5955C25.4417 60.0188 20.6189 54.6932 19.9061 47.8474C19.6963 45.8346 19.5914 43.8112 19.5914 41.7879C19.5914 39.8485 19.6858 37.8985 19.885 35.9695L19.9377 35.5082C20.0316 34.6173 20.1892 33.7469 20.4091 32.9191C21.8979 27.3417 26.2383 23.2217 31.4803 22.7184L33.2732 22.5402C39.6682 21.9323 46.0949 21.9217 52.4903 22.5402L54.4926 22.7289C59.7346 23.2323 64.075 27.3417 65.5743 32.9191C65.7942 33.7469 65.9518 34.6067 66.0461 35.4977L66.0668 35.697C66.4653 39.6492 66.4653 43.6331 66.0668 47.5748V47.5748Z" fill="url(#paint1_linear_0_466)"/>
</g>
<path fill-rule="evenodd" clip-rule="evenodd" d="M65.5732 32.9256L65.0594 32.8835C50.2067 31.5616 35.2697 31.5827 20.4166 32.9256C21.9051 27.3448 26.2447 23.2224 31.4857 22.7187L33.2783 22.5404C39.6721 21.9322 46.0975 21.9216 52.4917 22.5404L54.4936 22.7292C59.7346 23.2329 64.0742 27.3448 65.5732 32.9256H65.5732Z" fill="url(#paint2_linear_0_466)"/>
<path d="M49.46 27.2877C45.1497 27.0547 40.8299 27.0547 36.5196 27.2877" stroke="#ECECF6" stroke-width="3" stroke-linecap="round" stroke-linejoin="round"/>
<g filter="url(#filter1_d_0_466)">
<path fill-rule="evenodd" clip-rule="evenodd" d="M44.4586 38.843L45.1901 40.3526C45.4358 40.8599 45.9238 41.2058 46.4836 41.2697L47.8219 41.4228C49.2004 41.5803 49.7767 43.2697 48.7826 44.2379L48.0184 44.9817C47.6555 45.3355 47.4751 45.8367 47.5304 46.3409L47.7419 48.2733C47.8899 49.6261 46.4269 50.5643 45.2607 49.8642L43.8248 49.002C43.304 48.6895 42.6533 48.6895 42.1326 49.002L40.6966 49.8642C39.5308 50.5643 38.0674 49.6261 38.2155 48.2733L38.427 46.3409C38.4822 45.8367 38.3022 45.3355 37.9389 44.9817L37.1751 44.2379C36.1806 43.2697 36.757 41.5803 38.1354 41.4228L39.4741 41.2697C40.0335 41.2058 40.5215 40.8599 40.7676 40.3526L41.4988 38.843C42.098 37.6059 43.8593 37.6059 44.4586 38.843Z" fill="url(#paint3_linear_0_466)"/>
</g>
<defs>
<filter id="filter0_d_0_466" x="13.5913" y="22.0803" width="58.7744" height="51.1586" filterUnits="userSpaceOnUse" color-interpolation-filters="sRGB">
<feFlood flood-opacity="0" result="BackgroundImageFix"/>
<feColorMatrix in="SourceAlpha" type="matrix" values="0 0 0 0 0 0 0 0 0 0 0 0 0 0 0 0 0 0 127 0" result="hardAlpha"/>
<feOffset dy="6"/>
<feGaussianBlur stdDeviation="3"/>
<feColorMatrix type="matrix" values="0 0 0 0 0 0 0 0 0 0 0 0 0 0 0 0 0 0 0.2 0"/>
<feBlend mode="normal" in2="BackgroundImageFix" result="effect1_dropShadow_0_466"/>
<feBlend mode="normal" in="SourceGraphic" in2="effect1_dropShadow_0_466" result="shape"/>
</filter>
<filter id="filter1_d_0_466" x="33.675" y="37.9152" width="18.6072" height="18.187" filterUnits="userSpaceOnUse" color-interpolation-filters="sRGB">
<feFlood flood-opacity="0" result="BackgroundImageFix"/>
<feColorMatrix in="SourceAlpha" type="matrix" values="0 0 0 0 0 0 0 0 0 0 0 0 0 0 0 0 0 0 127 0" result="hardAlpha"/>
<feOffset dy="3"/>
<feGaussianBlur stdDeviation="1.5"/>
<feColorMatrix type="matrix" values="0 0 0 0 0 0 0 0 0 0 0 0 0 0 0 0 0 0 0.2 0"/>
<feBlend mode="normal" in2="BackgroundImageFix" result="effect1_dropShadow_0_466"/>
<feBlend mode="normal" in="SourceGraphic" in2="effect1_dropShadow_0_466" result="shape"/>
</filter>
<radialGradient id="paint0_radial_0_466" cx="0" cy="0" r="1" gradientUnits="userSpaceOnUse" gradientTransform="translate(42.9799 42.98) rotate(90) scale(35.29)">
<stop stop-color="#ECECF6"/>
<stop offset="1" stop-color="#1F354D" stop-opacity="0.01"/>
</radialGradient>
<linearGradient id="paint1_linear_0_466" x1="19.6" y1="61.2342" x2="66.36" y2="61.2342" gradientUnits="userSpaceOnUse">
<stop stop-color="#ECECF6"/>
<stop offset="0.97" stop-color="white"/>
</linearGradient>
<linearGradient id="paint2_linear_0_466" x1="80.9815" y1="46.3623" x2="82.44" y2="21.0618" gradientUnits="userSpaceOnUse">
<stop stop-color="#FF3F68"/>
<stop offset="0.29" stop-color="#FF4165"/>
<stop offset="0.48" stop-color="#FF485C"/>
<stop offset="0.63" stop-color="#FF544E"/>
<stop offset="0.76" stop-color="#FF6539"/>
<stop offset="0.89" stop-color="#FF7B1F"/>
<stop offset="1" stop-color="#FF9600"/>
</linearGradient>
<linearGradient id="paint3_linear_0_466" x1="43.1375" y1="53.758" x2="51.7378" y2="44.5398" gradientUnits="userSpaceOnUse">
<stop stop-color="#F62E79"/>
<stop offset="1" stop-color="#FF9236"/>
</linearGradient>
</defs>
</svg>
