<svg width="86" height="86" viewBox="0 0 86 86" fill="none" xmlns="http://www.w3.org/2000/svg">
<path opacity="0.3" fill-rule="evenodd" clip-rule="evenodd" d="M7.72994 42.9786C7.72994 23.4876 23.5305 7.68707 43.0215 7.68707C62.5124 7.68707 78.313 23.4876 78.313 42.9786C78.313 62.4696 62.5124 78.2702 43.0215 78.2702C23.5305 78.2702 7.72994 62.4696 7.72994 42.9786Z" fill="url(#paint0_radial_0_496)"/>
<g filter="url(#filter0_d_0_496)">
<path fill-rule="evenodd" clip-rule="evenodd" d="M61.8588 48.1445C57.4796 48.8925 53.7732 51.3547 53.7732 55.5873C53.7732 58.4066 55.7053 60.6657 58.0585 61.4438C58.4682 61.5792 58.8892 61.6694 59.3139 61.7107L60.1898 61.7972C63.2609 62.0942 66.3508 62.0942 69.4219 61.8009L70.3804 61.707C73.2711 61.4288 75.5942 58.8652 75.9287 55.5723L75.94 55.4558C75.94 49.5579 68.1927 47.0619 61.8588 48.1445H61.8588ZM64.8547 34.2663C61.8964 34.2663 59.4944 36.7923 59.4944 39.9086C59.4944 43.0248 61.8964 46.2688 64.8547 46.2688C67.8168 46.2688 70.2151 43.0248 70.2151 39.9086C70.2151 36.7923 67.8168 34.2663 64.8547 34.2663Z" fill="url(#paint1_linear_0_496)"/>
</g>
<g filter="url(#filter1_d_0_496)">
<path fill-rule="evenodd" clip-rule="evenodd" d="M25.4643 48.434C18.9462 46.7387 10.1013 49.0467 10.1013 55.5873C10.1013 58.8952 12.7627 61.4326 15.6458 61.7107L16.5217 61.7972C19.5928 62.0942 22.6789 62.0942 25.75 61.801L26.7123 61.707C27.4228 61.6393 28.1031 61.4326 28.7234 61.1093C30.6254 60.1244 32.005 58.0532 32.2606 55.5723L32.2719 55.4558C32.2719 51.7795 29.2647 49.4263 25.4643 48.434L25.4643 48.434ZM21.1866 34.2663C18.2283 34.2663 15.8263 36.7923 15.8263 39.9086C15.8263 43.0248 18.2283 46.2688 21.1866 46.2688C24.1487 46.2688 26.5469 43.0248 26.5469 39.9086C26.5469 36.7923 24.1487 34.2663 21.1866 34.2663Z" fill="url(#paint2_linear_0_496)"/>
</g>
<path opacity="0.08" fill-rule="evenodd" clip-rule="evenodd" d="M32.2737 55.4571L32.2624 55.5736C32.0068 58.0536 30.6276 60.124 28.7259 61.1085C26.2906 59.2034 24.607 56.2349 24.607 52.7817C24.607 51.1884 24.9114 49.7418 25.4676 48.4379C29.2671 49.4299 32.2737 51.7821 32.2737 55.4571L32.2737 55.4571Z" fill="#430070"/>
<path opacity="0.08" fill-rule="evenodd" clip-rule="evenodd" d="M62.8175 52.5581L62.7987 52.7573C62.4265 56.4184 60.6296 59.5532 58.0621 61.4476C55.7089 60.6696 53.7767 58.4105 53.7767 55.5914C53.7767 51.359 57.4832 48.897 61.8626 48.149C62.4792 49.4683 62.8175 50.938 62.8175 52.5581Z" fill="#430070"/>
<g filter="url(#filter2_d_0_496)">
<path fill-rule="evenodd" clip-rule="evenodd" d="M51.5454 29.689C51.5454 25.1323 48.0364 21.4387 43.7079 21.4387C39.3794 21.4387 35.8704 25.1323 35.8704 29.689C35.8704 34.2452 39.3794 38.9868 43.7079 38.9868C48.0364 38.9868 51.5454 34.2453 51.5454 29.689ZM59.9156 52.4241L59.9009 52.5933C59.4073 57.4082 56.0137 61.1555 51.7879 61.5604L50.3816 61.7002C45.8907 62.1272 41.3777 62.1272 36.8868 61.6931L35.6061 61.5679C31.3874 61.163 27.5002 57.4488 27.5002 52.6155C27.5002 37.4795 59.9156 37.8362 59.9156 52.4241V52.4241Z" fill="url(#paint3_linear_0_496)"/>
</g>
<defs>
<filter id="filter0_d_0_496" x="47.7732" y="31.2663" width="34.1667" height="39.7541" filterUnits="userSpaceOnUse" color-interpolation-filters="sRGB">
<feFlood flood-opacity="0" result="BackgroundImageFix"/>
<feColorMatrix in="SourceAlpha" type="matrix" values="0 0 0 0 0 0 0 0 0 0 0 0 0 0 0 0 0 0 127 0" result="hardAlpha"/>
<feOffset dy="3"/>
<feGaussianBlur stdDeviation="3"/>
<feColorMatrix type="matrix" values="0 0 0 0 0 0 0 0 0 0 0 0 0 0 0 0 0 0 0.2 0"/>
<feBlend mode="normal" in2="BackgroundImageFix" result="effect1_dropShadow_0_496"/>
<feBlend mode="normal" in="SourceGraphic" in2="effect1_dropShadow_0_496" result="shape"/>
</filter>
<filter id="filter1_d_0_496" x="4.10132" y="31.2663" width="34.1707" height="39.7541" filterUnits="userSpaceOnUse" color-interpolation-filters="sRGB">
<feFlood flood-opacity="0" result="BackgroundImageFix"/>
<feColorMatrix in="SourceAlpha" type="matrix" values="0 0 0 0 0 0 0 0 0 0 0 0 0 0 0 0 0 0 127 0" result="hardAlpha"/>
<feOffset dy="3"/>
<feGaussianBlur stdDeviation="3"/>
<feColorMatrix type="matrix" values="0 0 0 0 0 0 0 0 0 0 0 0 0 0 0 0 0 0 0.2 0"/>
<feBlend mode="normal" in2="BackgroundImageFix" result="effect1_dropShadow_0_496"/>
<feBlend mode="normal" in="SourceGraphic" in2="effect1_dropShadow_0_496" result="shape"/>
</filter>
<filter id="filter2_d_0_496" x="21.5002" y="21.4387" width="44.4153" height="52.5809" filterUnits="userSpaceOnUse" color-interpolation-filters="sRGB">
<feFlood flood-opacity="0" result="BackgroundImageFix"/>
<feColorMatrix in="SourceAlpha" type="matrix" values="0 0 0 0 0 0 0 0 0 0 0 0 0 0 0 0 0 0 127 0" result="hardAlpha"/>
<feOffset dy="6"/>
<feGaussianBlur stdDeviation="3"/>
<feColorMatrix type="matrix" values="0 0 0 0 0 0 0 0 0 0 0 0 0 0 0 0 0 0 0.2 0"/>
<feBlend mode="normal" in2="BackgroundImageFix" result="effect1_dropShadow_0_496"/>
<feBlend mode="normal" in="SourceGraphic" in2="effect1_dropShadow_0_496" result="shape"/>
</filter>
<radialGradient id="paint0_radial_0_496" cx="0" cy="0" r="1" gradientUnits="userSpaceOnUse" gradientTransform="translate(43.02 42.98) rotate(90) scale(35.29)">
<stop stop-color="#2D6CEA"/>
<stop offset="1" stop-color="#1F354D" stop-opacity="0.01"/>
</radialGradient>
<linearGradient id="paint1_linear_0_496" x1="62.9458" y1="71.4803" x2="84.5157" y2="57.7284" gradientUnits="userSpaceOnUse">
<stop stop-color="#6C36FF"/>
<stop offset="1" stop-color="#35ACDD"/>
</linearGradient>
<linearGradient id="paint2_linear_0_496" x1="4.54695" y1="52.9446" x2="26.0363" y2="66.6572" gradientUnits="userSpaceOnUse">
<stop stop-color="#35ACDD"/>
<stop offset="1" stop-color="#6C36FF"/>
</linearGradient>
<linearGradient id="paint3_linear_0_496" x1="40.9336" y1="75.8633" x2="72.4814" y2="55.7341" gradientUnits="userSpaceOnUse">
<stop stop-color="#6C36FF"/>
<stop offset="1" stop-color="#35ACDD"/>
</linearGradient>
</defs>
</svg>
