<svg width="27" height="29" viewBox="0 0 27 29" fill="none" xmlns="http://www.w3.org/2000/svg">
<path fill-rule="evenodd" clip-rule="evenodd" d="M26.3234 15.9402V20.2827C26.3234 23.9467 26.7344 27.6745 20.2829 28.177C19.4403 28.2423 18.7123 27.5865 18.7123 26.7422V20.268C18.7123 18.5076 17.2884 17.0772 15.5196 17.0772H11.7618C9.99883 17.0772 8.56915 18.5061 8.56915 20.268V26.784C8.56915 27.618 7.86011 28.2701 7.02779 28.221C-0.382143 27.7824 0.730476 24.0523 0.730476 20.2827V15.9403C0.730476 10.7776 2.27183 9.52183 5.00207 7.23323L12.1361 1.25494C12.8994 0.616775 14.1472 0.616775 14.9104 1.25494L22.0444 7.23323C24.7821 9.52182 26.3234 10.2048 26.3234 15.9403V15.9402Z" fill="#4589F7"/>
</svg>
