<svg width="27" height="29" viewBox="0 0 27 29" fill="none" xmlns="http://www.w3.org/2000/svg">
<path fill-rule="evenodd" clip-rule="evenodd" d="M26.3234 15.94V20.2825C26.3234 23.9465 26.7344 27.6743 20.2829 28.1768C19.4403 28.2421 18.7123 27.5863 18.7123 26.742V20.2678C18.7123 18.5074 17.2884 17.077 15.5196 17.077H11.7618C9.99883 17.077 8.56915 18.5059 8.56915 20.2678V26.7838C8.56915 27.6178 7.86011 28.2699 7.02779 28.2208C-0.382143 27.7821 0.730476 24.0521 0.730476 20.2825V15.9401C0.730476 10.7774 2.27183 9.52162 5.00207 7.23302L12.1361 1.25473C12.8994 0.616565 14.1472 0.616565 14.9104 1.25473L22.0444 7.23302C24.7821 9.52161 26.3234 10.2046 26.3234 15.9401V15.94Z" fill="#F4F6F8"/>
</svg>
