<svg width="74" height="75" viewBox="0 0 74 75" fill="none" xmlns="http://www.w3.org/2000/svg">
<g filter="url(#filter0_d_0_1213)">
<path fill-rule="evenodd" clip-rule="evenodd" d="M37.3175 54.6433C23.8499 54.6433 12.9323 43.7257 12.9323 30.2581V28.9877C12.9323 15.5202 23.8499 4.60252 37.3175 4.60252V4.60252C50.7851 4.60252 61.7027 15.5202 61.7027 28.9877V30.2581C61.7027 43.7257 50.7851 54.6433 37.3175 54.6433V54.6433Z" fill="url(#paint0_linear_0_1213)"/>
</g>
<path fill-rule="evenodd" clip-rule="evenodd" d="M39.3678 22.3701V26.7143H44.1104L43.5662 31.8469H39.3678V45.7464H33.3278V31.8469H28.457V26.7143H33.3278V21.1932C33.3278 16.7773 37.2244 15.0866 40.5383 15.0866C43.8501 15.0866 44.4336 15.8671 44.4336 15.8671V20.2845C41.0564 19.8296 39.3678 20.5448 39.3678 22.3701H39.3678Z" fill="#F4F6F8"/>
<defs>
<filter id="filter0_d_0_1213" x="0.932251" y="0.602539" width="72.7705" height="74.0408" filterUnits="userSpaceOnUse" color-interpolation-filters="sRGB">
<feFlood flood-opacity="0" result="BackgroundImageFix"/>
<feColorMatrix in="SourceAlpha" type="matrix" values="0 0 0 0 0 0 0 0 0 0 0 0 0 0 0 0 0 0 127 0" result="hardAlpha"/>
<feOffset dy="8"/>
<feGaussianBlur stdDeviation="6"/>
<feColorMatrix type="matrix" values="0 0 0 0 0.176471 0 0 0 0 0.423529 0 0 0 0 0.917647 0 0 0 0.15 0"/>
<feBlend mode="normal" in2="BackgroundImageFix" result="effect1_dropShadow_0_1213"/>
<feBlend mode="normal" in="SourceGraphic" in2="effect1_dropShadow_0_1213" result="shape"/>
</filter>
<linearGradient id="paint0_linear_0_1213" x1="38.1942" y1="-0.455504" x2="5.49825" y2="29.765" gradientUnits="userSpaceOnUse">
<stop stop-color="#1AAFFF"/>
<stop offset="1" stop-color="#4589F7"/>
</linearGradient>
</defs>
</svg>
