<svg width="86" height="86" viewBox="0 0 86 86" fill="none" xmlns="http://www.w3.org/2000/svg">
<g filter="url(#filter0_d_0_435)">
<path fill-rule="evenodd" clip-rule="evenodd" d="M54.2974 61.3566L49.9352 58.6865C45.6767 56.0803 40.3171 56.0773 36.056 58.6793L31.6573 61.3656C29.4029 62.7422 26.5112 61.1201 26.5112 58.479V25.8791C26.5112 23.8093 28.0847 22.079 30.1451 21.8824C38.5627 21.0798 47.0371 21.0711 55.4562 21.8568L55.804 21.8891C57.8681 22.0816 59.4465 23.8138 59.4465 25.8866V58.4718C59.4465 61.1141 56.5514 62.7362 54.2974 61.3566Z" fill="url(#paint0_linear_0_435)"/>
</g>
<path opacity="0.3" fill-rule="evenodd" clip-rule="evenodd" d="M7.68749 42.9786C7.68749 23.4876 23.488 7.68707 42.979 7.68707C62.47 7.68707 78.2705 23.4876 78.2705 42.9786C78.2705 62.4696 62.47 78.2702 42.979 78.2702C23.488 78.2702 7.68749 62.4696 7.68749 42.9786Z" fill="url(#paint1_radial_0_435)"/>
<defs>
<filter id="filter0_d_0_435" x="20.5112" y="21.2739" width="44.9353" height="52.5928" filterUnits="userSpaceOnUse" color-interpolation-filters="sRGB">
<feFlood flood-opacity="0" result="BackgroundImageFix"/>
<feColorMatrix in="SourceAlpha" type="matrix" values="0 0 0 0 0 0 0 0 0 0 0 0 0 0 0 0 0 0 127 0" result="hardAlpha"/>
<feOffset dy="6"/>
<feGaussianBlur stdDeviation="3"/>
<feColorMatrix type="matrix" values="0 0 0 0 0 0 0 0 0 0 0 0 0 0 0 0 0 0 0.2 0"/>
<feBlend mode="normal" in2="BackgroundImageFix" result="effect1_dropShadow_0_435"/>
<feBlend mode="normal" in="SourceGraphic" in2="effect1_dropShadow_0_435" result="shape"/>
</filter>
<linearGradient id="paint0_linear_0_435" x1="39.738" y1="80.3254" x2="79.4125" y2="54.218" gradientUnits="userSpaceOnUse">
<stop stop-color="#14EAA6"/>
<stop offset="1" stop-color="#CCE224"/>
</linearGradient>
<radialGradient id="paint1_radial_0_435" cx="0" cy="0" r="1" gradientUnits="userSpaceOnUse" gradientTransform="translate(42.98 42.98) rotate(90) scale(35.29)">
<stop stop-color="#14EAA6"/>
<stop offset="1" stop-color="#1F354D" stop-opacity="0.01"/>
</radialGradient>
</defs>
</svg>
