<svg width="26" height="28" viewBox="0 0 26 28" fill="none" xmlns="http://www.w3.org/2000/svg">
<path fill-rule="evenodd" clip-rule="evenodd" d="M20.8523 11.4609L16.5959 17.2848C15.9504 18.1608 14.7366 18.3451 13.8606 17.715L13.7992 17.669L13.5378 17.4692L10.4338 15.0413L5.96216 18.5909C5.5166 18.9443 4.87122 18.8675 4.51782 18.4219C4.22571 18.0685 4.22571 17.5768 4.4563 17.2233L8.75891 10.5696C9.34289 9.66306 10.5568 9.40171 11.4635 9.98576L11.6171 10.0934L11.8938 10.3084L15.0438 12.7824L19.1621 9.77049C19.6998 9.37095 20.4528 9.49394 20.8523 10.0317C21.1597 10.4621 21.1443 11.046 20.8523 11.4609V11.4609ZM12.9847 0.79657C5.80859 0.79657 0 6.6051 0 13.7812C0 17.5921 1.64429 21.0189 4.24109 23.4006V27.2268L8.60535 26.0129C9.97303 26.5048 11.4481 26.7659 12.9847 26.7659C20.1608 26.7659 25.9694 20.9574 25.9694 13.7812C25.9694 6.6051 20.1608 0.79657 12.9847 0.79657Z" fill="#F4F6F8"/>
</svg>
