<svg width="86" height="86" viewBox="0 0 86 86" fill="none" xmlns="http://www.w3.org/2000/svg">
<path opacity="0.3" fill-rule="evenodd" clip-rule="evenodd" d="M7.687 42.9786C7.687 23.4876 23.4875 7.68707 42.9785 7.68707C62.4695 7.68707 78.27 23.4876 78.27 42.9786C78.27 62.4696 62.4695 78.2702 42.9785 78.2702C23.4875 78.2702 7.687 62.4696 7.687 42.9786Z" fill="url(#paint0_radial_0_534)"/>
<g filter="url(#filter0_d_0_534)">
<path fill-rule="evenodd" clip-rule="evenodd" d="M64.1445 41.2892C64.1445 52.9737 54.678 62.4483 42.9783 62.4483C40.4744 62.4483 38.072 62.0199 35.8389 61.2231L28.7221 63.1925V56.9575C24.4963 53.0789 21.812 47.4941 21.812 41.2892C21.812 29.5934 31.2785 20.1188 42.9783 20.1188C54.678 20.1188 64.1445 29.5934 64.1445 41.2892V41.2892Z" fill="url(#paint1_linear_0_534)"/>
</g>
<g filter="url(#filter1_d_0_534)">
<path fill-rule="evenodd" clip-rule="evenodd" d="M55.7978 36.3378L50.0241 44.2271L48.8588 45.8207C47.8101 47.2565 45.8292 47.5497 44.4045 46.5236L44.3105 46.4522L43.882 46.1252L38.8188 42.1636L31.534 47.9481C30.8085 48.5269 29.7485 48.3991 29.1734 47.6775C28.7035 47.1024 28.7035 46.3056 29.0794 45.7268L36.0936 34.8795C36.398 34.4097 36.804 34.0489 37.2626 33.8008C38.2512 33.2709 39.4878 33.2821 40.4952 33.9248L40.7471 34.1053L41.1981 34.4586L46.3328 38.484L53.0538 33.5791C53.9221 32.9288 55.1475 33.128 55.7978 34C56.3015 34.7029 56.2789 35.6538 55.7978 36.3379L55.7978 36.3378Z" fill="url(#paint2_linear_0_534)"/>
</g>
<defs>
<filter id="filter0_d_0_534" x="15.812" y="20.1187" width="54.3325" height="55.0737" filterUnits="userSpaceOnUse" color-interpolation-filters="sRGB">
<feFlood flood-opacity="0" result="BackgroundImageFix"/>
<feColorMatrix in="SourceAlpha" type="matrix" values="0 0 0 0 0 0 0 0 0 0 0 0 0 0 0 0 0 0 127 0" result="hardAlpha"/>
<feOffset dy="6"/>
<feGaussianBlur stdDeviation="3"/>
<feColorMatrix type="matrix" values="0 0 0 0 0 0 0 0 0 0 0 0 0 0 0 0 0 0 0.2 0"/>
<feBlend mode="normal" in2="BackgroundImageFix" result="effect1_dropShadow_0_534"/>
<feBlend mode="normal" in="SourceGraphic" in2="effect1_dropShadow_0_534" result="shape"/>
</filter>
<filter id="filter1_d_0_534" x="25.8083" y="33.1952" width="33.3589" height="21.1167" filterUnits="userSpaceOnUse" color-interpolation-filters="sRGB">
<feFlood flood-opacity="0" result="BackgroundImageFix"/>
<feColorMatrix in="SourceAlpha" type="matrix" values="0 0 0 0 0 0 0 0 0 0 0 0 0 0 0 0 0 0 127 0" result="hardAlpha"/>
<feOffset dy="3"/>
<feGaussianBlur stdDeviation="1.5"/>
<feColorMatrix type="matrix" values="0 0 0 0 0 0 0 0 0 0 0 0 0 0 0 0 0 0 0.2 0"/>
<feBlend mode="normal" in2="BackgroundImageFix" result="effect1_dropShadow_0_534"/>
<feBlend mode="normal" in="SourceGraphic" in2="effect1_dropShadow_0_534" result="shape"/>
</filter>
<radialGradient id="paint0_radial_0_534" cx="0" cy="0" r="1" gradientUnits="userSpaceOnUse" gradientTransform="translate(42.98 42.98) rotate(90) scale(35.29)">
<stop stop-color="#6C36FF"/>
<stop offset="1" stop-color="#1F354D" stop-opacity="0.01"/>
</radialGradient>
<linearGradient id="paint1_linear_0_534" x1="41.1399" y1="76.19" x2="74.7643" y2="43.7249" gradientUnits="userSpaceOnUse">
<stop stop-color="#3382F6"/>
<stop offset="0.08" stop-color="#3D7DF1"/>
<stop offset="0.23" stop-color="#5A6FE6"/>
<stop offset="0.42" stop-color="#895AD3"/>
<stop offset="0.6" stop-color="#BD43BF"/>
<stop offset="0.75" stop-color="#D23FA8"/>
<stop offset="1" stop-color="#FF387A"/>
</linearGradient>
<linearGradient id="paint2_linear_0_534" x1="56.1711" y1="48.31" x2="56.1711" y2="33.19" gradientUnits="userSpaceOnUse">
<stop stop-color="#ECECF6"/>
<stop offset="0.97" stop-color="white"/>
</linearGradient>
</defs>
</svg>
