<svg width="29" height="32" viewBox="0 0 29 32" fill="none" xmlns="http://www.w3.org/2000/svg">
<path fill-rule="evenodd" clip-rule="evenodd" d="M26.1057 16.7097C26.4672 18.6615 25.199 20.5583 23.3211 21.205L10.8661 25.4935C8.81463 26.1999 6.57202 25.1068 5.86137 23.0429C5.60154 22.2883 5.58513 21.508 5.77041 20.7884C6.26999 18.8412 6.25171 16.837 5.54267 14.956C5.32393 14.3738 5.16477 13.7559 5.07244 13.1058C4.61385 9.87706 6.20464 6.57565 9.02007 4.92437C13.725 2.16371 19.4628 4.47674 21.1336 9.32912L21.1482 9.37151C21.7892 11.2638 22.8207 13.0384 24.4684 14.1713C25.2885 14.7358 25.9017 15.6148 26.1057 16.7097Z" fill="#F4F6F8"/>
<path fill-rule="evenodd" clip-rule="evenodd" d="M20.0742 24.0484C20.1014 25.8584 18.9717 27.5469 17.1823 28.163C15.3792 28.7839 13.4493 28.1489 12.343 26.7105L20.0742 24.0484Z" fill="#F4F6F8"/>
</svg>
