<svg width="86" height="86" viewBox="0 0 86 86" fill="none" xmlns="http://www.w3.org/2000/svg">
<path opacity="0.3" fill-rule="evenodd" clip-rule="evenodd" d="M7.68707 42.9786C7.68707 23.4876 23.4876 7.68707 42.9786 7.68707C62.4696 7.68707 78.2701 23.4876 78.2701 42.9786C78.2701 62.4696 62.4696 78.2702 42.9786 78.2702C23.4876 78.2702 7.68707 62.4696 7.68707 42.9786Z" fill="url(#paint0_radial_0_421)"/>
<g filter="url(#filter0_d_0_421)">
<path fill-rule="evenodd" clip-rule="evenodd" d="M65.2226 30.3706L58.5404 31.799V51.2683L65.2238 52.6967C66.8774 53.0501 68.4622 51.8631 68.5886 50.1768C69.0174 44.4436 69.0186 38.6864 68.5919 32.9529L68.5874 32.8916C68.4619 31.2049 66.8763 30.0168 65.2226 30.3706Z" fill="url(#paint1_linear_0_421)"/>
</g>
<g filter="url(#filter1_d_0_421)">
<path fill-rule="evenodd" clip-rule="evenodd" d="M63.4847 35.3663L63.5054 35.5701C63.9094 39.516 63.9098 43.502 63.5069 47.4479L63.4825 47.6877C62.7818 54.542 57.9512 59.8828 51.932 60.4576L49.9358 60.6481C43.5408 61.259 37.1123 61.2564 30.7176 60.6399L28.8954 60.4643C22.8891 59.8851 18.0674 54.5596 17.3578 47.7208C16.9485 43.775 16.9428 39.7881 17.3409 35.8407L17.3875 35.3803C18.0791 28.5211 22.9079 23.1705 28.93 22.5901L30.7177 22.4176C37.1123 21.8015 43.5408 21.7985 49.9358 22.4093L51.9347 22.6003C57.9527 23.175 62.783 28.514 63.4847 35.3663H63.4847Z" fill="url(#paint2_linear_0_421)"/>
</g>
<g filter="url(#filter2_d_0_421)">
<path fill-rule="evenodd" clip-rule="evenodd" d="M34.9687 35.7971V47.27C34.9687 48.4893 36.2746 49.2637 37.3442 48.6783L48.3981 42.6288C49.5394 42.0043 49.5026 40.3526 48.3346 39.7796L37.2807 34.3561C36.2141 33.8327 34.9687 34.6094 34.9687 35.7971V35.7971Z" fill="url(#paint3_linear_0_421)"/>
</g>
<defs>
<filter id="filter0_d_0_421" x="52.5405" y="27.308" width="22.3706" height="34.4511" filterUnits="userSpaceOnUse" color-interpolation-filters="sRGB">
<feFlood flood-opacity="0" result="BackgroundImageFix"/>
<feColorMatrix in="SourceAlpha" type="matrix" values="0 0 0 0 0 0 0 0 0 0 0 0 0 0 0 0 0 0 127 0" result="hardAlpha"/>
<feOffset dy="3"/>
<feGaussianBlur stdDeviation="3"/>
<feColorMatrix type="matrix" values="0 0 0 0 0 0 0 0 0 0 0 0 0 0 0 0 0 0 0.2 0"/>
<feBlend mode="normal" in2="BackgroundImageFix" result="effect1_dropShadow_0_421"/>
<feBlend mode="normal" in="SourceGraphic" in2="effect1_dropShadow_0_421" result="shape"/>
</filter>
<filter id="filter1_d_0_421" x="11.0464" y="21.9533" width="58.7625" height="51.1509" filterUnits="userSpaceOnUse" color-interpolation-filters="sRGB">
<feFlood flood-opacity="0" result="BackgroundImageFix"/>
<feColorMatrix in="SourceAlpha" type="matrix" values="0 0 0 0 0 0 0 0 0 0 0 0 0 0 0 0 0 0 127 0" result="hardAlpha"/>
<feOffset dy="6"/>
<feGaussianBlur stdDeviation="3"/>
<feColorMatrix type="matrix" values="0 0 0 0 0 0 0 0 0 0 0 0 0 0 0 0 0 0 0.2 0"/>
<feBlend mode="normal" in2="BackgroundImageFix" result="effect1_dropShadow_0_421"/>
<feBlend mode="normal" in="SourceGraphic" in2="effect1_dropShadow_0_421" result="shape"/>
</filter>
<filter id="filter2_d_0_421" x="31.9688" y="34.1899" width="20.2639" height="20.6876" filterUnits="userSpaceOnUse" color-interpolation-filters="sRGB">
<feFlood flood-opacity="0" result="BackgroundImageFix"/>
<feColorMatrix in="SourceAlpha" type="matrix" values="0 0 0 0 0 0 0 0 0 0 0 0 0 0 0 0 0 0 127 0" result="hardAlpha"/>
<feOffset dy="3"/>
<feGaussianBlur stdDeviation="1.5"/>
<feColorMatrix type="matrix" values="0 0 0 0 0 0 0 0 0 0 0 0 0 0 0 0 0 0 0.2 0"/>
<feBlend mode="normal" in2="BackgroundImageFix" result="effect1_dropShadow_0_421"/>
<feBlend mode="normal" in="SourceGraphic" in2="effect1_dropShadow_0_421" result="shape"/>
</filter>
<radialGradient id="paint0_radial_0_421" cx="0" cy="0" r="1" gradientUnits="userSpaceOnUse" gradientTransform="translate(42.9799 42.98) rotate(90) scale(35.29)">
<stop stop-color="#FF387A"/>
<stop offset="1" stop-color="#1F354D" stop-opacity="0.01"/>
</radialGradient>
<linearGradient id="paint1_linear_0_421" x1="58.5499" y1="52.7524" x2="68.9199" y2="52.7524" gradientUnits="userSpaceOnUse">
<stop stop-color="#FC714C"/>
<stop offset="1" stop-color="#FF9236"/>
</linearGradient>
<linearGradient id="paint2_linear_0_421" x1="17.0399" y1="61.1069" x2="63.8099" y2="61.1069" gradientUnits="userSpaceOnUse">
<stop stop-color="#F62E79"/>
<stop offset="1" stop-color="#FF9236"/>
</linearGradient>
<linearGradient id="paint3_linear_0_421" x1="34.96" y1="48.881" x2="49.24" y2="48.881" gradientUnits="userSpaceOnUse">
<stop stop-color="#ECECF6"/>
<stop offset="0.97" stop-color="white"/>
</linearGradient>
</defs>
</svg>
