<svg width="50" height="50" viewBox="0 0 50 50" fill="none" xmlns="http://www.w3.org/2000/svg">
<path d="M25.0098 48.8436C38.1728 48.8436 48.8436 38.1728 48.8436 25.0098C48.8436 11.8468 38.1728 1.17601 25.0098 1.17601C11.8468 1.17601 1.17601 11.8468 1.17601 25.0098C1.17601 38.1728 11.8468 48.8436 25.0098 48.8436Z" fill="#83C300"/>
<path d="M47.8436 25.0098C47.8436 37.6206 37.6206 47.8436 25.0098 47.8436C12.399 47.8436 2.17601 37.6206 2.17601 25.0098C2.17601 12.399 12.399 2.17601 25.0098 2.17601C37.6206 2.17601 47.8436 12.399 47.8436 25.0098Z" stroke="black" stroke-opacity="0.25" stroke-width="2"/>
<path d="M25.9992 27.7895C25.9183 25.6933 26.4981 23.5184 27.2325 21.3705C27.3103 21.1429 27.4538 21.0527 27.6619 21.0126C28.1227 20.9234 28.5702 20.786 29.0124 20.6309C30.9167 19.9628 32.5135 18.8342 33.8861 17.3706C33.9547 17.2973 34.0216 17.2225 34.0898 17.1488C34.3902 16.8238 34.3944 16.8197 34.7023 17.1258C36.385 18.7997 37.5804 20.7695 38.2407 23.0502C40.0982 29.4671 37.1307 36.2329 31.1576 39.2233C30.9933 39.3056 30.8246 39.3795 30.6558 39.4528C30.2736 39.6186 30.2775 39.6137 29.9912 39.2844C27.8156 36.784 26.5959 33.8683 26.1833 30.5929C26.0743 29.728 26.0004 28.8634 25.9992 27.7895Z" fill="#FEFEFE"/>
<path d="M24.0502 27.6886C23.9759 30.5175 23.5788 32.9808 22.5708 35.3203C21.9359 36.7936 21.0288 38.0939 20.0022 39.3156C19.7434 39.6235 19.733 39.6235 19.371 39.4573C16.2344 38.0176 13.9289 35.7352 12.4747 32.6068C11.5112 30.5337 11.1088 28.3409 11.2597 26.0641C11.489 22.6033 12.8428 19.6358 15.2832 17.1674C15.3067 17.1437 15.3305 17.12 15.355 17.097C15.6374 16.8309 15.6448 16.8244 15.8998 17.1094C16.6619 17.9616 17.5075 18.7176 18.4588 19.3532C19.6113 20.1231 20.8605 20.6786 22.2136 20.9737C22.5749 21.0525 22.7491 21.216 22.8587 21.558C23.3136 22.9767 23.7619 24.3965 23.9173 25.8863C23.9902 26.5843 24.0216 27.2866 24.0502 27.6886Z" fill="#FEFEFE"/>
<path d="M25.0231 18.7087C22.1617 18.7107 19.8565 17.5913 17.972 15.5445C17.7036 15.2532 17.7066 15.2376 18.0441 15.0355C18.7634 14.6053 19.521 14.2546 20.3083 13.9683C20.4653 13.9112 20.626 13.8636 20.7813 13.802C21.0255 13.7052 21.0331 13.6748 20.8826 13.4414C20.8283 13.3573 20.764 13.2797 20.7042 13.1991C20.0668 12.3397 19.4288 11.4808 18.793 10.6202C18.6938 10.4859 18.588 10.3526 18.5151 10.204C18.3089 9.7844 18.4385 9.30498 18.8114 9.04783C19.1766 8.79616 19.6241 8.8334 19.9551 9.15916C20.0853 9.28715 20.1934 9.43866 20.303 9.58605C21.1311 10.6995 21.9661 11.8081 22.7773 12.9338C22.971 13.2025 23.1705 13.2875 23.4922 13.2427C24.5067 13.1007 25.5265 13.0984 26.5408 13.2436C26.8679 13.2905 27.0617 13.1899 27.2526 12.9261C28.0858 11.775 28.94 10.6392 29.7881 9.49883C29.8777 9.37848 29.9659 9.25363 30.0737 9.15053C30.4175 8.82184 30.8965 8.7991 31.2613 9.08291C31.6094 9.35379 31.7123 9.80146 31.5072 10.2084C31.4402 10.3414 31.3475 10.4628 31.2583 10.5835C30.6223 11.4439 29.9841 12.3028 29.3467 13.1623C29.2869 13.2428 29.225 13.322 29.1684 13.4047C28.9696 13.6954 28.9712 13.7025 29.2814 13.8179C29.4224 13.8704 29.5664 13.9142 29.7079 13.9651C30.4961 14.2497 31.2522 14.6033 31.9733 15.0302C32.3261 15.2389 32.3291 15.2491 32.069 15.5318C30.1587 17.6072 27.8226 18.7329 25.0231 18.7087Z" fill="#FEFEFE"/>
</svg>
