<svg width="50" height="50" viewBox="0 0 50 50" fill="none" xmlns="http://www.w3.org/2000/svg">
<path d="M25.0098 48.8436C38.1728 48.8436 48.8436 38.1728 48.8436 25.0098C48.8436 11.8468 38.1728 1.17601 25.0098 1.17601C11.8468 1.17601 1.17601 11.8468 1.17601 25.0098C1.17601 38.1728 11.8468 48.8436 25.0098 48.8436Z" fill="#5B5466"/>
<path d="M47.8436 25.0098C47.8436 37.6206 37.6206 47.8436 25.0098 47.8436C12.399 47.8436 2.17601 37.6206 2.17601 25.0098C2.17601 12.399 12.399 2.17601 25.0098 2.17601C37.6206 2.17601 47.8436 12.399 47.8436 25.0098Z" stroke="black" stroke-opacity="0.25" stroke-width="2"/>
<path fill-rule="evenodd" clip-rule="evenodd" d="M21.0751 37.216C21.7689 37.3085 22.48 37.3567 23.2038 37.3567C30.9106 37.3567 37.158 31.9091 37.158 25.1895C37.158 18.4696 30.9104 13.0223 23.2038 13.0223C22.6868 13.0223 22.176 13.047 21.674 13.0947C25.4969 15.6199 28.0247 19.9947 28.0247 24.9682C28.0243 30.1972 25.2309 34.7638 21.0751 37.216ZM25.0098 40.1731C33.3844 40.1731 40.1731 33.3844 40.1731 25.0098C40.1731 16.6352 33.3844 9.84653 25.0098 9.84653C16.6352 9.84653 9.84653 16.6352 9.84653 25.0098C9.84653 33.3844 16.6352 40.1731 25.0098 40.1731Z" fill="white"/>
</svg>
