<svg width="50" height="50" viewBox="0 0 50 50" fill="none" xmlns="http://www.w3.org/2000/svg">
<path d="M25.0098 48.8436C38.1728 48.8436 48.8436 38.1728 48.8436 25.0098C48.8436 11.8468 38.1728 1.17601 25.0098 1.17601C11.8468 1.17601 1.17601 11.8468 1.17601 25.0098C1.17601 38.1728 11.8468 48.8436 25.0098 48.8436Z" fill="#006FC9"/>
<path d="M47.8436 25.0098C47.8436 37.6206 37.6206 47.8436 25.0098 47.8436C12.399 47.8436 2.17601 37.6206 2.17601 25.0098C2.17601 12.399 12.399 2.17601 25.0098 2.17601C37.6206 2.17601 47.8436 12.399 47.8436 25.0098Z" stroke="black" stroke-opacity="0.25" stroke-width="2"/>
<path d="M24.8305 35.1927C27.7554 35.2238 29.9502 33.9639 31.2632 31.3426C32.8938 28.0872 31.6094 24.109 28.4206 22.3218C28.3459 22.2801 28.2734 22.2303 28.1934 22.2027C27.9042 22.1029 27.8134 21.9206 27.8595 21.6113C27.9098 21.2746 27.9089 20.9283 27.9073 20.5864C27.9028 19.6537 27.5268 18.8603 26.9616 18.1425C26.9314 18.1043 26.89 18.0747 26.854 18.0412C26.8171 18.0925 26.8485 18.1384 26.8708 18.1805C27.3369 19.0619 27.383 20.0141 27.3548 20.9818C27.3428 21.3867 27.2187 21.753 27.0412 22.1096C26.8046 22.5851 26.4581 22.8501 25.9038 22.9457C22.7299 23.4926 19.6068 24.2715 16.4847 25.0553C14.3099 25.6013 12.1243 26.1055 9.94355 26.628C9.86025 26.648 9.77715 26.6717 9.69247 26.6811C9.64779 26.686 9.57193 26.6764 9.56037 26.6505C9.54371 26.6139 9.5637 26.5516 9.58506 26.5086C9.6227 26.4322 9.67229 26.3614 9.71835 26.2893C11.4192 23.6327 12.9441 20.8752 14.4126 18.0857C14.5935 17.7419 14.8308 17.4808 15.1488 17.256C17.6674 15.4761 20.1558 13.6564 22.4951 11.6405C24.423 9.97923 26.1625 8.14191 27.725 6.13485C27.7987 6.04019 27.8718 5.94532 27.9482 5.853C27.9684 5.8287 28.0022 5.79518 28.0257 5.79812C28.0964 5.80694 28.0796 5.86653 28.0711 5.91278C28.0466 6.04744 28.0188 6.1815 27.9931 6.31596C27.6025 8.35438 26.832 10.2509 25.8575 12.0735C25.4922 12.7568 25.5041 12.7566 26.2865 12.777C32.568 12.9404 38.0464 17.1166 39.8495 23.1435C41.7773 29.5882 39.0711 36.4179 33.3089 39.8324C32.4367 40.3493 31.5196 40.7652 30.5629 41.1004C30.2826 41.1985 30.0453 41.1758 29.7775 41.0572C28.6027 40.5365 27.5978 39.7687 26.6505 38.9214C25.5862 37.9696 24.6456 36.9065 23.8751 35.6991C23.8107 35.5982 23.7485 35.4957 23.6878 35.3924C23.6094 35.2591 23.5921 35.1784 23.8042 35.1884C24.145 35.2046 24.488 35.1927 24.8305 35.1927ZM19.9925 18.4575C19.9639 18.1856 19.9371 17.9136 19.9057 17.6421C19.8979 17.5747 19.8769 17.5086 19.8606 17.4424C19.8291 17.3142 19.754 17.276 19.6372 17.3422C19.5631 17.3844 19.491 17.4308 19.4212 17.4798C17.8079 18.609 16.4798 20.0247 15.3032 21.5906C15.1227 21.8307 15.1599 21.8944 15.4835 21.9024C16.8365 21.9355 18.0427 21.5372 19.0719 20.6468C19.7372 20.0712 20.0267 19.3318 19.9925 18.4575Z" fill="#FEFEFE"/>
<path d="M24.1464 41.3969C22.7846 41.2446 21.4332 41.0367 20.116 40.6446C18.0035 40.0161 16.2189 38.8373 14.5947 37.3793C12.2938 35.3138 10.8456 32.7397 10.0194 29.7885C9.92768 29.4612 9.93101 29.4534 10.2813 29.4198C12.482 29.2085 14.6597 28.8667 16.8003 28.303C18.0598 27.9712 19.2907 27.5559 20.4998 27.0737C20.6588 27.0104 20.8187 26.9494 20.98 26.8922C21.008 26.8822 21.0502 26.8871 21.0762 26.902C21.1352 26.9357 21.1115 26.9882 21.0862 27.0312C21.0257 27.1345 20.9596 27.2346 20.8981 27.3371C20.704 27.6597 20.5053 27.9798 20.3183 28.3065C19.3675 29.9667 19.1325 31.7397 19.4443 33.6143C19.875 36.2042 21.089 38.3416 23.0749 40.0478C23.5811 40.4829 24.0945 40.91 24.6015 41.3442C24.6423 41.3791 24.735 41.3906 24.6993 41.4745C24.6942 41.4865 24.6041 41.4622 24.5531 41.4549C24.4175 41.4353 24.2819 41.4163 24.1464 41.3969Z" fill="#FEFEFE"/>
</svg>
