<svg width="50" height="50" viewBox="0 0 50 50" fill="none" xmlns="http://www.w3.org/2000/svg">
<path d="M25.0098 48.8436C38.1728 48.8436 48.8436 38.1728 48.8436 25.0098C48.8436 11.8468 38.1728 1.17601 25.0098 1.17601C11.8468 1.17601 1.17601 11.8468 1.17601 25.0098C1.17601 38.1728 11.8468 48.8436 25.0098 48.8436Z" fill="#FB89EB"/>
<path d="M47.8436 25.0098C47.8436 37.6206 37.6206 47.8436 25.0098 47.8436C12.399 47.8436 2.17601 37.6206 2.17601 25.0098C2.17601 12.399 12.399 2.17601 25.0098 2.17601C37.6206 2.17601 47.8436 12.399 47.8436 25.0098Z" stroke="black" stroke-opacity="0.25" stroke-width="2"/>
<path fill-rule="evenodd" clip-rule="evenodd" d="M14.4971 35.2975L20.1299 33.6643L24.9951 42.56C25.0016 42.5715 25.018 42.5715 25.0243 42.56L29.8894 33.6643L35.5223 35.2975C35.5349 35.3013 35.5466 35.2895 35.5429 35.2768L33.9094 29.7554L42.5598 25.0243C42.5713 25.018 42.5713 25.0014 42.5598 24.9951L33.8381 20.225L35.5429 14.4626C35.5466 14.45 35.5349 14.4383 35.5223 14.4418L29.7573 16.1135L25.0243 7.45943C25.018 7.44787 25.0014 7.44787 24.9951 7.45943L20.262 16.1135L14.4971 14.4418C14.4845 14.4381 14.4727 14.4498 14.4765 14.4626L16.1813 20.225L7.45962 24.9951C7.44805 25.0014 7.44805 25.018 7.45962 25.0243L16.1099 29.7554L14.4765 35.2768C14.4727 35.2895 14.4845 35.3013 14.4971 35.2975ZM18.8681 25.0706L22.8587 27.253L25.0411 31.2436C25.0474 31.2552 25.0641 31.2552 25.0704 31.2436L27.2528 27.253L31.2434 25.0706C31.255 25.0643 31.255 25.0476 31.2434 25.0414L27.2528 22.8589L25.0704 18.8683C25.0641 18.8567 25.0474 18.8567 25.0411 18.8683L22.8587 22.8589L18.8681 25.0414C18.8567 25.0476 18.8567 25.0641 18.8681 25.0706Z" fill="white"/>
</svg>
