<svg width="50" height="50" viewBox="0 0 50 50" fill="none" xmlns="http://www.w3.org/2000/svg">
<path d="M25.0098 48.8436C38.1728 48.8436 48.8436 38.1728 48.8436 25.0098C48.8436 11.8468 38.1728 1.17601 25.0098 1.17601C11.8468 1.17601 1.17601 11.8468 1.17601 25.0098C1.17601 38.1728 11.8468 48.8436 25.0098 48.8436Z" fill="#E0306A"/>
<path d="M47.8436 25.0098C47.8436 37.6206 37.6206 47.8436 25.0098 47.8436C12.399 47.8436 2.17601 37.6206 2.17601 25.0098C2.17601 12.399 12.399 2.17601 25.0098 2.17601C37.6206 2.17601 47.8436 12.399 47.8436 25.0098Z" stroke="black" stroke-opacity="0.25" stroke-width="2"/>
<path d="M27.3493 36.1078C23.5955 36.1078 19.8416 36.0988 16.0878 36.1153C15.3403 36.1186 14.9988 35.9167 15 35.0427C15.009 28.4892 14.9949 21.9357 14.9881 15.382C14.9881 15.2881 14.9853 15.194 14.9904 15.1006C15.0167 14.6139 15.2699 14.3542 15.756 14.3371C16.1153 14.3246 16.4753 14.3334 16.8352 14.3332C17.4295 14.333 18.0251 14.3581 18.618 14.3275C19.5582 14.2789 19.7413 14.6703 19.7313 15.4165C19.7076 17.1837 19.7237 18.9512 19.7237 20.7187C19.7237 21.0941 19.7184 21.4696 19.726 21.8448C19.7389 22.4767 19.9561 22.6925 20.5739 22.7009C20.699 22.7027 20.8244 22.7056 20.9493 22.6988C21.394 22.6744 21.6351 22.4404 21.6466 21.9867C21.6605 21.4396 21.6513 20.8918 21.6515 20.3444C21.6517 18.7334 21.6515 17.1223 21.6517 15.5114C21.6517 15.3863 21.6492 15.2611 21.6535 15.136C21.6729 14.599 21.9275 14.3459 22.4765 14.3354C22.9298 14.3265 23.3836 14.333 23.8371 14.333C24.4003 14.333 24.9634 14.3285 25.5263 14.3348C26.1304 14.3414 26.3777 14.5839 26.3793 15.1942C26.3848 17.3214 26.3814 19.4487 26.3828 21.5757C26.383 21.7476 26.3759 21.9216 26.4004 22.0908C26.4534 22.4585 26.6894 22.6713 27.0643 22.6958C27.2668 22.7089 27.4714 22.7093 27.6739 22.6962C28.0696 22.6709 28.3028 22.4459 28.3471 22.05C28.3644 21.8951 28.3591 21.7376 28.3593 21.5813C28.3599 19.548 28.3597 17.5147 28.3599 15.4814C28.3599 15.3563 28.3577 15.2311 28.3611 15.106C28.3767 14.5182 28.6339 14.2558 29.2327 14.2507C30.218 14.2423 31.2035 14.2415 32.1888 14.2511C32.7823 14.257 33.0404 14.5216 33.0418 15.1207C33.0467 17.2636 33.0435 19.4063 33.0445 21.5492C33.0445 21.7211 33.0371 21.8949 33.0592 22.0645C33.1113 22.4632 33.3442 22.6758 33.7456 22.6972C33.9483 22.708 34.1529 22.7093 34.3554 22.6956C34.727 22.6703 34.9596 22.4534 35.0096 22.0819C35.0324 21.9126 35.0259 21.7385 35.0259 21.5666C35.0269 19.5647 35.0265 17.5625 35.0267 15.5606C35.0267 15.4198 35.0239 15.2789 35.0286 15.1384C35.0471 14.5857 35.2844 14.3405 35.8401 14.3361C36.8722 14.3281 37.9048 14.3275 38.9369 14.3365C39.4818 14.3412 39.7333 14.6009 39.757 15.1439C39.7611 15.2376 39.7585 15.3314 39.7585 15.4253C39.7525 21.932 39.7462 28.4387 39.7395 34.9453C39.7393 35.1017 39.746 35.2593 39.7295 35.4142C39.685 35.8334 39.4506 36.0641 39.0333 36.1013C38.8781 36.1153 38.7207 36.1074 38.5643 36.1074C34.8256 36.1078 31.0874 36.1078 27.3493 36.1078Z" fill="#FEFEFE"/>
<path d="M13.4312 28.433C13.4312 30.6051 13.4314 32.7772 13.4306 34.9492C13.4306 35.1209 13.4351 35.2942 13.4159 35.4643C13.3708 35.8624 13.1554 36.0786 12.756 36.1376C12.6484 36.1535 12.5372 36.1447 12.4289 36.1566C11.8475 36.2203 11.4908 35.9998 11.2217 35.4445C10.4857 33.9269 9.68562 32.44 8.902 30.9455C8.76049 30.6754 8.67817 30.4053 8.67974 30.098C8.68523 28.9886 8.68248 27.8791 8.67327 26.7695C8.67072 26.4639 8.73893 26.1874 8.87986 25.9165C9.7013 24.3361 10.5223 22.7556 11.3273 21.167C11.498 20.8301 11.7297 20.6692 12.1015 20.6882C12.3197 20.6993 12.5404 20.6795 12.757 20.7015C13.1676 20.743 13.4034 20.9892 13.4437 21.4014C13.4575 21.5408 13.451 21.6825 13.451 21.823C13.4514 24.0265 13.4512 26.2297 13.4512 28.4332C13.4445 28.433 13.4379 28.433 13.4312 28.433Z" fill="#FEFEFE"/>
</svg>
