<svg width="50" height="50" viewBox="0 0 50 50" fill="none" xmlns="http://www.w3.org/2000/svg">
<path d="M24.5455 49.0909C38.1016 49.0909 49.0909 38.1016 49.0909 24.5455C49.0909 10.9894 38.1016 0 24.5455 0C10.9894 0 0 10.9894 0 24.5455C0 38.1016 10.9894 49.0909 24.5455 49.0909Z" fill="#FF9741"/>
<path d="M48.0909 24.5455C48.0909 37.5493 37.5493 48.0909 24.5455 48.0909C11.5416 48.0909 1 37.5493 1 24.5455C1 11.5416 11.5416 1 24.5455 1C37.5493 1 48.0909 11.5416 48.0909 24.5455Z" stroke="black" stroke-opacity="0.25" stroke-width="2"/>
<path d="M35.6355 36.2427C35.63 36.4223 35.5091 36.5443 35.4168 36.6805C33.9298 38.8727 31.9223 40.3457 29.3614 41.0473C27.6286 41.5221 25.8675 41.853 24.0661 41.7234C19.516 41.3959 15.7466 39.5902 13.1324 35.7336C11.8527 33.8459 11.2227 31.7186 11.0551 29.4518C10.8273 26.3714 11.4798 23.4425 12.5945 20.5947C12.7087 20.303 12.8286 20.0134 12.9534 19.7261C12.9861 19.6508 13.0002 19.5206 13.1233 19.5552C13.1954 19.5753 13.1786 19.6779 13.179 19.7479C13.1803 19.9322 13.1764 20.1167 13.1772 20.301C13.1855 22.5038 13.3801 24.6823 14.0414 26.7982C14.2616 27.5025 14.523 28.1916 14.8395 28.8591C14.8764 28.937 14.912 29.0486 15.0244 29.0125C15.0559 29.0023 15.069 28.8777 15.0605 28.8093C14.9491 27.8932 14.9102 26.9718 14.8896 26.0509C14.8092 22.4655 15.722 19.2259 18.2555 16.5713C18.9549 15.8386 19.6858 15.1364 20.5136 14.5407C21.1725 14.0665 21.7924 13.5437 22.3515 12.9507C23.4111 11.827 23.9348 10.4853 24.0048 8.95336C24.0482 8.00748 23.9248 7.07755 23.7461 6.15245C23.7252 6.04405 23.7034 5.93566 23.6889 5.82625C23.6843 5.79295 23.7 5.72816 23.7123 5.72675C23.7602 5.72109 23.813 5.72795 23.8589 5.74409C23.8911 5.75561 23.9164 5.78911 23.9434 5.81414C25.3268 7.10318 26.578 8.49839 27.4502 10.1964C28.227 11.7091 28.5568 13.313 28.4277 15.0104C28.3866 15.5518 28.3918 15.5583 27.8534 15.7195C26.2586 16.1973 25.1377 17.7603 25.212 19.5124C25.2809 21.1409 26.3793 22.5739 27.9575 23.002C29.9477 23.542 31.9773 22.3232 32.5182 20.2685C32.7457 19.4048 32.6625 18.5509 32.4586 17.6989C32.343 17.2143 32.1855 16.7425 32.0125 16.2754C31.9768 16.1791 31.8725 16.0524 31.983 15.9765C32.0748 15.9133 32.185 16.0251 32.2773 16.08C34.4289 17.358 36.1375 19.0626 37.0934 21.3977C38.7627 25.4748 38.3284 29.3577 35.7016 32.9034C33.9914 35.2114 31.6198 36.3432 28.7248 36.3057C28.3759 36.3011 28.0273 36.2489 27.6789 36.2145C27.5893 36.2057 27.4752 36.2109 27.4375 36.1134C27.3961 36.0059 27.5066 35.9616 27.5732 35.9068C27.687 35.813 27.81 35.7298 27.9184 35.6302C29.4632 34.2123 30.0493 32.4559 29.5852 30.4243C29.1291 28.4293 27.8677 27.1089 25.8757 26.5668C23.2861 25.8618 20.5568 27.4734 19.8077 30.1366C19.2712 32.0436 19.7117 33.765 20.9631 35.2566C22.494 37.0811 24.4902 38.0511 26.8589 38.2711C29.1525 38.4843 31.3325 38.005 33.453 37.1884C34.1911 36.9041 34.9041 36.5543 35.6284 36.2343L35.6355 36.2427Z" fill="#FEFEFE"/>
</svg>
