<svg width="50" height="50" viewBox="0 0 50 50" fill="none" xmlns="http://www.w3.org/2000/svg">
<path d="M25.0098 48.8436C38.1728 48.8436 48.8436 38.1728 48.8436 25.0098C48.8436 11.8467 38.1728 1.17599 25.0098 1.17599C11.8468 1.17599 1.17601 11.8467 1.17601 25.0098C1.17601 38.1728 11.8468 48.8436 25.0098 48.8436Z" fill="#89AAE3"/>
<path d="M47.8436 25.0098C47.8436 37.6205 37.6206 47.8436 25.0098 47.8436C12.399 47.8436 2.17601 37.6205 2.17601 25.0098C2.17601 12.399 12.399 2.17599 25.0098 2.17599C37.6206 2.17599 47.8436 12.399 47.8436 25.0098Z" stroke="black" stroke-opacity="0.25" stroke-width="2"/>
<path d="M37.0396 23.8262C37.0504 24.0053 36.9408 24.14 36.8669 24.287C35.6184 26.7705 32.42 28.9365 29.3463 28.93C28.696 28.9287 28.0465 28.9265 27.3971 28.8887C27.3354 28.8852 27.2283 28.9034 27.217 28.9367C27.1825 29.0388 27.2822 29.0766 27.3567 29.0992C28.0747 29.3166 28.8015 29.4971 29.5443 29.6094C30.6264 29.773 31.7044 29.7529 32.7764 29.5331C33.8808 29.3068 34.8236 28.7576 35.6952 28.0633C35.826 27.9592 35.9212 27.7817 36.1274 27.7915C36.0529 27.9389 35.9826 28.0884 35.9034 28.2331C34.823 30.2052 33.0909 31.188 30.9243 31.5104C30.3293 31.599 29.7295 31.6155 29.1292 31.6215C28.9959 31.6229 28.8624 31.6241 28.7295 31.6331C28.6856 31.636 28.6156 31.6437 28.6325 31.7137C28.6423 31.7542 28.6805 31.8022 28.7183 31.8191C28.8244 31.8663 28.9359 31.9026 29.0472 31.9367C29.2862 32.0096 29.5276 32.0741 29.7656 32.1496C30.0202 32.2303 30.0329 32.2468 29.9179 32.5022C29.4977 33.4349 28.9543 34.2917 28.2862 35.0665C26.5676 37.0594 24.414 38.3179 21.8222 38.7605C15.7566 39.7964 10.255 35.7983 9.16209 30.0322C8.05664 24.1999 11.6754 18.6664 17.4469 17.2926C18.2934 17.0912 19.1539 17.008 20.0243 17.0104C21.7244 17.0151 23.4257 17.0478 25.1249 17.0037C28.1511 16.9251 31.1329 16.5167 34.0367 15.6278C34.8989 15.3638 35.7303 15.0226 36.5173 14.5772C37.833 13.8328 38.8842 12.7993 39.7695 11.589C40.1431 11.0782 40.4886 10.5467 40.8487 10.0257C40.8838 9.97492 40.9159 9.89554 40.9971 9.92592C41.0731 9.95434 41.0553 10.0355 41.0531 10.0972C41.0143 11.1813 40.9136 12.2611 40.7015 13.3242C40.2875 15.4002 39.5506 17.3681 38.4716 19.1837C36.815 21.9708 34.3975 23.8083 31.2644 24.6772C30.4581 24.9008 29.6219 24.9696 28.7915 25.009C27.56 25.0676 26.325 25.0841 25.1037 24.8493C25.0386 24.8367 24.9716 24.8322 24.9053 24.8279C24.8589 24.825 24.8048 24.8275 24.7993 24.8861C24.7969 24.9108 24.8265 24.9483 24.8516 24.9634C24.9081 24.9973 24.97 25.0226 25.031 25.0482C26.9628 25.8616 28.9598 26.3175 31.07 26.1351C32.4046 26.0196 33.7068 25.7556 34.9514 25.245C35.6688 24.9506 36.3171 24.552 36.8493 23.9785C36.9042 23.9195 36.9786 23.8787 37.0439 23.8293L37.0396 23.8262Z" fill="#FEFEFE"/>
</svg>
