<svg width="50" height="50" viewBox="0 0 50 50" fill="none" xmlns="http://www.w3.org/2000/svg">
<path d="M25.0098 48.8436C38.1728 48.8436 48.8436 38.1728 48.8436 25.0098C48.8436 11.8467 38.1728 1.17599 25.0098 1.17599C11.8468 1.17599 1.17601 11.8467 1.17601 25.0098C1.17601 38.1728 11.8468 48.8436 25.0098 48.8436Z" fill="#4C6AB2"/>
<path d="M47.8436 25.0098C47.8436 37.6205 37.6206 47.8436 25.0098 47.8436C12.399 47.8436 2.17601 37.6205 2.17601 25.0098C2.17601 12.399 12.399 2.17599 25.0098 2.17599C37.6206 2.17599 47.8436 12.399 47.8436 25.0098Z" stroke="black" stroke-opacity="0.25" stroke-width="2"/>
<path d="M37.764 38.3558C37.5908 38.2605 37.4191 38.1625 37.2472 38.0645C37.1776 38.0249 37.1072 37.9867 37.038 37.9467C36.5641 37.6719 36.1686 37.3046 35.8256 36.8826C35.3505 36.2983 35.2693 35.6623 35.6088 34.981C35.7072 34.7838 35.8657 34.6353 36.0063 34.4714C39.6715 30.1982 40.8038 25.3362 39.1486 19.952C37.0661 13.1774 30.3163 8.63349 22.8183 9.48355C19.5957 9.84889 16.7205 11.0935 14.3471 13.3107C10.0998 17.2785 8.55116 22.1474 9.7205 27.8593C11.1629 33.3375 14.4982 36.6527 19.7358 38.8038C21.1835 39.3005 22.9014 39.7033 24.4098 39.9473C25.5615 40.1335 26.5835 40.1825 27.7446 40.1907C28.3242 40.1948 28.9377 40.1892 29.6203 40.1848C30.8648 40.1976 31.3518 40.1466 32.2115 40.0684C34.0882 39.8975 35.872 39.3575 37.5955 38.6078C37.6521 38.5831 37.7082 38.5572 37.7646 38.5326C37.9016 38.4728 37.8777 38.4183 37.764 38.3558ZM22.5664 22.9834C22.3009 24.6747 20.8953 25.8812 19.1844 25.8765C17.7417 25.8726 16.4782 24.981 15.9935 23.6249C15.5118 22.2766 15.9275 20.764 17.0306 19.8561C17.1139 19.7875 17.1993 19.7201 17.2905 19.6631C17.4855 19.541 17.5218 19.5541 17.5484 19.7815C17.6029 20.246 17.7199 20.6903 17.9387 21.1053C18.7423 22.6294 20.5557 23.3093 22.1797 22.6615C22.6701 22.4659 22.6278 22.5921 22.5664 22.9834ZM26.6572 23.136C26.6364 23.0304 26.6194 22.923 26.6131 22.8156C26.5968 22.5406 26.6313 22.5092 26.8877 22.6188C27.6401 22.9404 28.4104 22.9947 29.1952 22.7776C30.5051 22.4151 31.4694 21.2709 31.6268 19.9191C31.6398 19.8077 31.5747 19.6411 31.7303 19.6004C31.8536 19.568 31.9514 19.6899 32.0488 19.7621C33.1986 20.6137 33.6842 22.1537 33.2378 23.5243C32.7736 24.9485 31.4839 25.8803 29.9818 25.8765C28.3526 25.8724 26.9708 24.734 26.6572 23.136Z" fill="#FEFEFE"/>
</svg>
