<svg width="50" height="50" viewBox="0 0 50 50" fill="none" xmlns="http://www.w3.org/2000/svg">
<path d="M24.5455 49.0909C38.1016 49.0909 49.0909 38.1016 49.0909 24.5455C49.0909 10.9894 38.1016 0 24.5455 0C10.9894 0 0 10.9894 0 24.5455C0 38.1016 10.9894 49.0909 24.5455 49.0909Z" fill="#38BF4B"/>
<path d="M48.0909 24.5455C48.0909 37.5493 37.5493 48.0909 24.5455 48.0909C11.5416 48.0909 1 37.5493 1 24.5455C1 11.5416 11.5416 1 24.5455 1C37.5493 1 48.0909 11.5416 48.0909 24.5455Z" stroke="black" stroke-opacity="0.25" stroke-width="2"/>
<path d="M26.3039 31.8361C25.0282 31.8361 23.753 31.8361 22.4774 31.8361C22.3583 31.8361 22.2392 31.8361 22.1203 31.8343C21.9714 31.8318 21.8779 31.7918 21.9841 31.6232C22.0384 31.537 22.0917 31.45 22.1456 31.3634C23.2061 29.6607 24.2711 27.9602 25.3234 26.252C25.4959 25.9723 25.6834 25.8214 26.0368 25.7848C28.133 25.568 30.2257 25.3189 32.3195 25.0789C32.4373 25.0655 32.5577 25.0511 32.6693 25.0143C32.9259 24.9295 33.0698 24.7482 33.0645 24.5414C33.0595 24.337 32.9102 24.1466 32.6623 24.0686C32.5011 24.018 32.3309 23.9905 32.1627 23.9702C30.6948 23.7918 29.2259 23.6173 27.7575 23.4418C27.0073 23.3518 27.1636 23.3139 27.45 22.8561C28.857 20.6077 30.2661 18.3605 31.6732 16.1122C31.7725 15.9538 31.8673 15.7925 31.9575 15.629C32.0323 15.4935 32.0793 15.3466 32.0716 15.1897C32.0525 14.8014 31.7384 14.6171 31.3934 14.7945C31.178 14.9051 31.0184 15.0848 30.8548 15.2582C29.023 17.2004 27.1909 19.1422 25.3582 21.0839C24.8389 21.6341 24.9034 21.6198 24.6334 20.9375C24.102 19.5942 23.5739 18.2494 23.042 16.9063C22.9795 16.7486 22.9168 16.5884 22.8302 16.4436C22.6813 16.1942 22.4399 16.0755 22.2429 16.13C22.0406 16.1859 21.8955 16.4134 21.8949 16.697C21.8947 16.8153 21.9148 16.9341 21.9318 17.0518C22.2247 19.0871 22.5148 21.1228 22.8157 23.1568C22.8716 23.5345 22.8014 23.82 22.5166 24.1132C21.142 25.5277 19.795 26.9689 18.4383 28.4009C18.3681 28.475 18.3007 28.5518 18.227 28.6223C18.0364 28.8043 18.0114 28.8039 17.943 28.5484C17.5738 27.1695 17.2092 25.7895 16.8477 24.4086C16.5207 23.1593 16.1998 21.9084 15.876 20.6584C15.816 20.4268 15.7528 20.1981 15.5597 20.0326C15.2676 19.7821 14.9257 19.863 14.7787 20.2213C14.7046 20.4018 14.726 20.5885 14.744 20.7752C14.8699 22.078 14.9959 23.3805 15.1204 24.6836C15.2722 26.2739 15.423 27.8645 15.573 29.4552C15.6192 29.9459 15.6509 30.438 15.7097 30.927C15.7363 31.1491 15.6878 31.3127 15.5308 31.4766C14.5544 32.4957 13.5888 33.5252 12.6158 34.5473C12.3649 34.8109 12.3524 34.8105 12.1132 34.5357C10.7027 32.9145 9.72952 31.0584 9.2483 28.9677C8.3123 24.9007 8.93423 21.0984 11.305 17.6283C12.3672 16.0734 13.7595 14.8758 15.3677 13.8968C18.2171 12.1621 21.3026 11.0527 24.5305 10.2859C26.9975 9.69971 29.4855 9.23807 32.012 9.01421C33.3839 8.89268 34.7609 8.84 36.1391 8.8618C36.5159 8.86786 36.522 8.86968 36.6198 9.23825C36.9855 10.6191 37.29 12.0138 37.5143 13.4247C38.0473 16.7761 38.2318 20.1507 38.14 23.5398C38.0839 25.6161 37.9105 27.6814 37.3386 29.6923C36.818 31.5234 36.0223 33.2352 34.9334 34.7877C33.165 37.3089 30.722 38.9182 27.77 39.7173C24.452 40.6155 21.2045 40.3464 18.0661 38.9155C17.9579 38.8661 17.8515 38.8132 17.7464 38.7575C17.6533 38.7086 17.6438 38.6277 17.6882 38.543C17.7355 38.453 17.7922 38.3677 17.8459 38.2811C18.5189 37.1984 19.1995 36.1205 19.86 35.03C20.0251 34.7573 20.2213 34.6348 20.541 34.5866C22.927 34.227 25.3095 33.8452 27.6934 33.4698C28.5832 33.3298 29.4727 33.1895 30.3616 33.045C30.5286 33.0177 30.6986 32.9855 30.8555 32.9243C31.1057 32.8268 31.2586 32.5945 31.2402 32.3782C31.2186 32.1252 31.0502 31.9927 30.8357 31.9009C30.6411 31.818 30.4359 31.8311 30.2323 31.8311C28.9227 31.8309 27.6134 31.8309 26.3039 31.8309C26.3039 31.8318 26.3039 31.8341 26.3039 31.8361Z" fill="#FEFEFE"/>
</svg>
