<svg width="50" height="50" viewBox="0 0 50 50" fill="none" xmlns="http://www.w3.org/2000/svg">
<path d="M25.0098 48.8436C38.1728 48.8436 48.8436 38.1728 48.8436 25.0098C48.8436 11.8467 38.1728 1.17599 25.0098 1.17599C11.8468 1.17599 1.17601 11.8467 1.17601 25.0098C1.17601 38.1728 11.8468 48.8436 25.0098 48.8436Z" fill="#E87236"/>
<path d="M47.8436 25.0098C47.8436 37.6205 37.6206 47.8436 25.0098 47.8436C12.399 47.8436 2.17601 37.6205 2.17601 25.0098C2.17601 12.399 12.399 2.17599 25.0098 2.17599C37.6206 2.17599 47.8436 12.399 47.8436 25.0098Z" stroke="black" stroke-opacity="0.25" stroke-width="2"/>
<path fill-rule="evenodd" clip-rule="evenodd" d="M16.2781 34.0761C16.2697 34.0761 16.2638 34.0678 16.2666 34.0598L24.1631 13.904C24.1648 13.8991 24.1693 13.8959 24.1746 13.8959H34.1721C34.1772 13.8959 34.1819 13.8993 34.1836 13.9042L41.9628 34.06C41.9655 34.0678 41.9596 34.0761 41.9512 34.0761H16.2781ZM6.93042 34.1635C6.92199 34.1635 6.91611 34.1551 6.91905 34.147L12.9951 18.4487C12.9969 18.444 13.0014 18.4408 13.0065 18.4408H18.1156C18.1241 18.4408 18.1299 18.4492 18.127 18.4571L12.2452 34.1554C12.2434 34.1601 12.2389 34.1635 12.2338 34.1635H6.93042V34.1635Z" fill="white"/>
</svg>
