<svg width="50" height="50" viewBox="0 0 50 50" fill="none" xmlns="http://www.w3.org/2000/svg">
<path d="M25.0098 48.8436C38.1728 48.8436 48.8436 38.1728 48.8436 25.0098C48.8436 11.8467 38.1728 1.17599 25.0098 1.17599C11.8468 1.17599 1.17601 11.8467 1.17601 25.0098C1.17601 38.1728 11.8468 48.8436 25.0098 48.8436Z" fill="#4CD1C0"/>
<path d="M47.8436 25.0098C47.8436 37.6205 37.6206 47.8436 25.0098 47.8436C12.399 47.8436 2.17601 37.6205 2.17601 25.0098C2.17601 12.399 12.399 2.17599 25.0098 2.17599C37.6206 2.17599 47.8436 12.399 47.8436 25.0098Z" stroke="black" stroke-opacity="0.25" stroke-width="2"/>
<path d="M15.6817 20.8724L24.195 25.0145L15.6817 29.1472L7.16817 25.0155L15.6817 20.8724Z" fill="white"/>
<path d="M34.3379 20.8724L25.8246 25.0145L34.3379 29.1472L42.8514 25.0155L34.3379 20.8724Z" fill="white"/>
<path d="M34.3379 10.217L25.8246 14.698V23.4722L25.8893 23.44L26.0102 23.3799L34.3356 19.2372L34.3354 19.237L34.3379 19.2358V10.217Z" fill="white"/>
<path d="M34.3379 39.8026L25.8246 35.3216V26.5474L25.8893 26.5796L26.0102 26.6397L34.3356 30.7824L34.3354 30.7826L34.3379 30.7838V39.8026Z" fill="white"/>
<path d="M15.6817 10.217L24.195 14.698V23.4722L24.1303 23.44L24.0094 23.3799L15.684 19.2372L15.6842 19.237L15.6817 19.2358V10.217Z" fill="white"/>
<path d="M15.6817 39.8026L24.195 35.3216V26.5474L24.1303 26.5796L24.0094 26.6397L15.684 30.7824L15.6842 30.7826L15.6817 30.7838V39.8026Z" fill="white"/>
</svg>
