<svg width="50" height="50" viewBox="0 0 50 50" fill="none" xmlns="http://www.w3.org/2000/svg">
<path d="M25.0098 48.8436C38.1728 48.8436 48.8436 38.1728 48.8436 25.0098C48.8436 11.8467 38.1728 1.17599 25.0098 1.17599C11.8468 1.17599 1.17601 11.8467 1.17601 25.0098C1.17601 38.1728 11.8468 48.8436 25.0098 48.8436Z" fill="#919AA2"/>
<path d="M47.8436 25.0098C47.8436 37.6205 37.6206 47.8436 25.0098 47.8436C12.399 47.8436 2.17601 37.6205 2.17601 25.0098C2.17601 12.399 12.399 2.17599 25.0098 2.17599C37.6206 2.17599 47.8436 12.399 47.8436 25.0098Z" stroke="black" stroke-opacity="0.25" stroke-width="2"/>
<path fill-rule="evenodd" clip-rule="evenodd" d="M39.9628 25.0667C39.9628 33.2987 33.2987 39.9628 25.0666 39.9628C16.8346 39.9628 10.1705 33.2987 10.1705 25.0667C10.1705 16.8346 16.8346 10.1705 25.0666 10.1705C33.2987 10.1705 39.9628 16.8346 39.9628 25.0667ZM34.4602 25C34.4602 30.1946 30.2468 34.4081 25.0521 34.4081C19.8575 34.4081 15.6729 30.1658 15.6729 25C15.6729 19.8342 19.8863 15.5919 25.0809 15.5919C30.2756 15.5919 34.4602 19.8054 34.4602 25Z" fill="white"/>
</svg>
