<svg width="50" height="50" viewBox="0 0 50 50" fill="none" xmlns="http://www.w3.org/2000/svg">
<path d="M25.0098 48.8436C38.1728 48.8436 48.8436 38.1728 48.8436 25.0098C48.8436 11.8467 38.1728 1.17599 25.0098 1.17599C11.8467 1.17599 1.17599 11.8467 1.17599 25.0098C1.17599 38.1728 11.8467 48.8436 25.0098 48.8436Z" fill="#B567CE"/>
<path d="M47.8436 25.0098C47.8436 37.6205 37.6205 47.8436 25.0098 47.8436C12.399 47.8436 2.17599 37.6205 2.17599 25.0098C2.17599 12.399 12.399 2.17599 25.0098 2.17599C37.6205 2.17599 47.8436 12.399 47.8436 25.0098Z" stroke="black" stroke-opacity="0.25" stroke-width="2"/>
<path d="M25.1719 9.55585C29.017 9.6168 32.7097 10.6891 35.9249 13.1774C38.0261 14.8036 39.6178 16.8306 40.4553 19.3722C41.7223 23.2173 41.0876 26.7942 38.7836 30.0921C38.0261 31.1764 37.1076 32.1176 36.0645 32.9286C35.7589 33.1662 35.6911 33.3855 35.7918 33.7648C36.176 35.2083 36.0753 36.6307 35.4725 38.0049C35.1437 38.7548 34.6762 39.4016 33.998 39.8794C32.8914 40.6593 31.5578 40.6597 30.4553 39.8757C29.678 39.3228 29.1909 38.5549 28.8451 37.6828C28.7865 37.5351 28.7826 37.2711 28.6388 37.272C28.4379 37.2734 28.4684 37.5466 28.4071 37.7005C28.0954 38.4818 27.6384 39.1489 26.9502 39.645C25.6582 40.5764 23.9561 40.4798 22.7728 39.412C22.2246 38.9173 21.8297 38.3218 21.5784 37.6289C21.5394 37.5211 21.5049 37.411 21.4559 37.3077C21.4194 37.2307 21.3514 37.2236 21.3134 37.3044C21.2509 37.4377 21.2019 37.5772 21.1499 37.7152C20.891 38.4014 20.5121 39.0092 19.9827 39.521C18.6768 40.783 16.874 40.7797 15.5729 39.5049C14.6246 38.5756 14.1734 37.412 14.0472 36.1172C13.9655 35.2799 13.9912 34.4384 14.2552 33.6288C14.3487 33.3416 14.2683 33.1815 14.0427 33.0072C12.6635 31.9412 11.5143 30.665 10.6205 29.1658C9.42904 27.1676 8.83691 25.0027 8.93335 22.6772C9.05056 19.8487 10.1017 17.3751 11.9343 15.2336C14.0852 12.7201 16.8232 11.1386 19.9804 10.244C21.6174 9.77948 23.2932 9.57839 25.1719 9.55585ZM24.9927 30.4778C26.2507 30.4831 27.4835 30.3126 28.6858 29.942C30.4149 29.409 31.9433 28.5472 33.1542 27.1766C35.2091 24.8508 35.2789 21.803 33.3316 19.3861C32.706 18.6095 31.9465 17.9857 31.0917 17.4776C29.5378 16.5541 27.8508 16.068 26.0529 15.922C23.7722 15.7366 21.5968 16.1048 19.5494 17.1325C18.0496 17.8853 16.7952 18.9269 15.9882 20.4294C15.0621 22.1536 15.0129 23.9137 15.8646 25.6817C16.5513 27.1074 17.6572 28.1411 19.0051 28.9279C20.8532 30.0066 22.8653 30.4692 24.9927 30.4778Z" fill="#FEFEFE"/>
</svg>
