<svg width="50" height="50" viewBox="0 0 50 50" fill="none" xmlns="http://www.w3.org/2000/svg">
<path d="M25.0098 48.8436C38.1728 48.8436 48.8436 38.1728 48.8436 25.0098C48.8436 11.8468 38.1728 1.17601 25.0098 1.17601C11.8467 1.17601 1.17599 11.8468 1.17599 25.0098C1.17599 38.1728 11.8467 48.8436 25.0098 48.8436Z" fill="#FF6675"/>
<path d="M47.8436 25.0098C47.8436 37.6206 37.6205 47.8436 25.0098 47.8436C12.399 47.8436 2.17599 37.6206 2.17599 25.0098C2.17599 12.399 12.399 2.17601 25.0098 2.17601C37.6205 2.17601 47.8436 12.399 47.8436 25.0098Z" stroke="black" stroke-opacity="0.25" stroke-width="2"/>
<path d="M36.9475 35.9579C36.805 36.1688 36.5831 36.2879 36.3836 36.4283C34.316 37.8822 32.0192 38.7652 29.5329 39.1862C28.1944 39.413 26.8479 39.4863 25.4967 39.4198C22.3765 39.2668 19.453 38.471 16.8507 36.6794C13.9294 34.6682 12.1041 31.9149 11.3095 28.4667C10.9808 27.0406 10.8736 25.5939 10.9681 24.1386C11.1321 21.607 11.7746 19.2058 13.1501 17.0529C14.9296 14.2679 17.4247 12.3869 20.5682 11.3661C22.3673 10.7821 24.2125 10.5041 26.1021 10.5923C28.9957 10.7274 31.6249 11.6203 33.9142 13.4257C35.7123 14.844 36.9249 16.6801 37.6403 18.8389C38.6956 22.0237 38.499 25.126 36.9575 28.1304C36.4494 29.1206 35.7093 29.9097 34.9016 30.6456C33.4206 31.9949 31.7187 32.9434 29.7348 33.2909C26.8222 33.8011 24.1878 33.1815 21.9598 31.1703C20.5463 29.8946 19.747 28.2836 19.4963 26.3955C19.3367 25.1948 19.4077 24.0078 19.8113 22.8699C20.6441 20.5216 22.3475 19.1282 24.7542 18.6168C26.2497 18.2991 27.7084 18.47 29.0339 19.3015C30.4432 20.1852 31.2184 21.5028 31.4394 23.1176C31.7115 25.1053 30.2532 27.0635 28.2564 27.5041C27.666 27.6343 27.0782 27.646 26.4873 27.5039C25.3485 27.2301 24.4242 26.2405 24.2438 25.0923C24.1748 24.6527 24.248 24.2221 24.3548 23.7995C24.4228 23.5304 24.6109 23.4253 24.8387 23.48C25.0568 23.5325 25.1899 23.7229 25.1503 23.9784C25.1188 24.1815 25.0992 24.3824 25.1239 24.5849C25.2601 25.6972 26.2131 26.3656 27.3628 26.1578C27.3914 26.1527 27.4193 26.1441 27.4477 26.1382C29.4498 25.7186 29.6458 23.6505 28.9461 22.4702C28.4489 21.6315 27.6848 21.1633 26.7458 20.9728C24.8412 20.5864 23.2585 21.7785 22.6662 23.1707C21.9226 24.9185 22.2211 26.5355 23.45 27.9596C25.1319 29.9085 28.0065 30.3779 30.2817 29.0957C32.2172 28.0049 33.3928 26.3544 33.6794 24.1521C33.9649 21.9577 33.3967 20.0063 31.8975 18.3095C30.5496 16.784 28.8765 15.9163 26.9138 15.6029C22.0557 14.8271 17.9765 17.3242 16.2272 21.6029C15.5047 23.3701 15.2852 25.2152 15.4914 27.1145C15.8062 30.0141 16.9912 32.4951 19.0888 34.5188C20.9345 36.2997 23.1341 37.4281 25.6615 37.8848C29.4647 38.5721 33.0521 37.8928 36.462 36.1341C36.6141 36.0557 36.7521 35.9334 36.942 35.9522L36.9475 35.9579Z" fill="#FEFEFE"/>
</svg>
