<svg width="50" height="50" viewBox="0 0 50 50" fill="none" xmlns="http://www.w3.org/2000/svg">
<path d="M25.0098 48.8436C38.1728 48.8436 48.8436 38.1728 48.8436 25.0098C48.8436 11.8467 38.1728 1.17599 25.0098 1.17599C11.8467 1.17599 1.17599 11.8467 1.17599 25.0098C1.17599 38.1728 11.8467 48.8436 25.0098 48.8436Z" fill="#C8B686"/>
<path d="M47.8436 25.0098C47.8436 37.6205 37.6205 47.8436 25.0098 47.8436C12.399 47.8436 2.17599 37.6205 2.17599 25.0098C2.17599 12.399 12.399 2.17599 25.0098 2.17599C37.6205 2.17599 47.8436 12.399 47.8436 25.0098Z" stroke="black" stroke-opacity="0.25" stroke-width="2"/>
<path fill-rule="evenodd" clip-rule="evenodd" d="M34.0257 24.312C34.0237 24.3095 34.0229 24.3062 34.0235 24.303L36.1329 12.0028C36.1339 11.9971 36.1388 11.993 36.1444 11.993H36.812C36.8171 11.993 36.8216 11.9963 36.8232 12.0012L41.5756 27.0484C41.5772 27.0531 41.5754 27.0582 41.5717 27.0614L38.0676 29.7971C38.0623 29.8013 38.0549 29.8001 38.0509 29.7948L34.0257 24.312ZM8.44315 32.4663C8.44315 32.4714 8.44648 32.4759 8.45118 32.4775L15.6744 34.8393C15.678 34.8405 15.6819 34.8399 15.6848 34.8377L31.8302 23.6913C31.833 23.6893 31.8348 23.6866 31.8352 23.6833L33.5666 12.0659C33.5678 12.0588 33.5621 12.0523 33.5551 12.0523H19.2542C19.2507 12.0523 19.2473 12.0539 19.2452 12.0567L8.44589 25.0843C8.44413 25.0864 8.44315 25.089 8.44315 25.0919V32.4663ZM18.6844 35.441L26.5756 38.0259C26.5792 38.0271 26.5831 38.0265 26.5862 38.0243L35.9812 31.2852C35.9865 31.2815 35.9876 31.2744 35.9841 31.2691L32.4622 26.0282C32.4584 26.0227 32.4512 26.0214 32.4457 26.0251L18.6844 35.441Z" fill="white"/>
</svg>
