<svg width="50" height="50" viewBox="0 0 50 50" fill="none" xmlns="http://www.w3.org/2000/svg">
<path d="M25.0098 48.8436C38.1728 48.8436 48.8436 38.1728 48.8436 25.0098C48.8436 11.8467 38.1728 1.17599 25.0098 1.17599C11.8467 1.17599 1.17599 11.8467 1.17599 25.0098C1.17599 38.1728 11.8467 48.8436 25.0098 48.8436Z" fill="#5A8EA2"/>
<path d="M47.8436 25.0098C47.8436 37.6205 37.6205 47.8436 25.0098 47.8436C12.399 47.8436 2.17599 37.6205 2.17599 25.0098C2.17599 12.399 12.399 2.17599 25.0098 2.17599C37.6205 2.17599 47.8436 12.399 47.8436 25.0098Z" stroke="black" stroke-opacity="0.25" stroke-width="2"/>
<path fill-rule="evenodd" clip-rule="evenodd" d="M8.68994 25.0067C8.68563 24.9992 8.68563 24.99 8.68994 24.9826L16.8991 10.9571C16.9034 10.9498 16.9112 10.9455 16.9195 10.9455H33.1901C33.1988 10.9455 33.2064 10.9498 33.2109 10.9575L41.3299 24.983C41.334 24.9902 41.334 24.9996 41.3299 25.0069L33.2109 39.0169C33.2066 39.0241 33.1988 39.0288 33.1901 39.0288H16.9195C16.9108 39.0288 16.9032 39.0245 16.8991 39.0173L8.68994 25.0067ZM32.5729 24.9867C32.5729 29.1623 29.188 32.5473 25.0124 32.5473C20.8367 32.5473 17.4518 29.1623 17.4518 24.9867C17.4518 20.8111 20.8367 17.4261 25.0124 17.4261C29.188 17.4261 32.5729 20.8111 32.5729 24.9867Z" fill="white"/>
</svg>
