<svg width="50" height="50" viewBox="0 0 50 50" fill="none" xmlns="http://www.w3.org/2000/svg">
<path d="M24.5455 49.0909C38.1016 49.0909 49.0909 38.1016 49.0909 24.5455C49.0909 10.9894 38.1016 0 24.5455 0C10.9894 0 0 10.9894 0 24.5455C0 38.1016 10.9894 49.0909 24.5455 49.0909Z" fill="#3692DC"/>
<path d="M48.0909 24.5455C48.0909 37.5493 37.5493 48.0909 24.5455 48.0909C11.5416 48.0909 1 37.5493 1 24.5455C1 11.5416 11.5416 1 24.5455 1C37.5493 1 48.0909 11.5416 48.0909 24.5455Z" stroke="black" stroke-opacity="0.25" stroke-width="2"/>
<path d="M24.6527 41.3452C18.7517 41.2775 14.2021 37.2914 13.0699 32.1C12.558 29.7527 12.7806 27.4586 13.6379 25.2086C14.9504 21.7645 16.6805 18.5368 18.6379 15.4259C20.3496 12.7055 22.0918 10.0043 23.8191 7.29357C24.018 6.9815 24.2082 6.6638 24.4005 6.34748C24.5005 6.18318 24.5968 6.1848 24.6957 6.34668C24.7218 6.38966 24.7489 6.43266 24.7748 6.47566C26.6239 9.52748 28.6382 12.4745 30.5139 15.5092C32.215 18.2609 33.7943 21.0762 35.0052 24.0843C35.483 25.2711 35.9657 26.455 36.15 27.7348C36.6591 31.263 35.8107 34.4257 33.5202 37.155C31.3918 39.6907 28.6316 41.0468 25.33 41.2984C25.0618 41.3189 24.7934 41.3357 24.6527 41.3452ZM23.8989 37.6416C25.1071 37.6475 26.2489 37.3889 27.2882 36.7825C29.3216 35.5957 30.4896 33.855 30.5873 31.4623C30.5946 31.285 30.6646 30.982 30.5259 30.952C30.303 30.9039 30.2877 31.2136 30.1959 31.372C29.0248 33.3948 27.2746 34.52 24.9446 34.6123C21.3205 34.7557 18.46 31.7945 18.5408 28.335C18.544 28.2005 18.5509 28.0657 18.548 27.9316C18.547 27.8868 18.5335 27.822 18.5028 27.8027C18.4265 27.7545 18.3837 27.8273 18.3444 27.8777C18.2927 27.9441 18.2438 28.013 18.2006 28.0852C16.9752 30.1327 16.8605 32.2357 18.0513 34.313C19.332 36.5477 21.3609 37.5686 23.8989 37.6416Z" fill="#FEFEFE"/>
</svg>
